<?xml version="1.0" encoding="UTF-8"?>
<svg id="Layer_2" xmlns="http://www.w3.org/2000/svg" version="1.1" viewBox="0 0 494.9 285">
  <!-- Generator: Adobe Illustrator 29.3.1, SVG Export Plug-In . SVG Version: 2.1.0 Build 151)  -->
  <defs>
    <style>
      .st0 {
        fill: #50547b;
      }

      .st1 {
        fill: #d99976;
      }

      .st2 {
        fill: #9a5d47;
      }

      .st3 {
        fill: #4e0efe;
      }

      .st4 {
        fill: #56404d;
      }

      .st5 {
        fill: #d3d120;
      }

      .st6 {
        fill: #727591;
      }

      .st7 {
        fill: #6be688;
      }

      .st8 {
        fill: #2dd87d;
      }

      .st9 {
        fill: #8686fe;
      }

      .st10 {
        fill: #f2b697;
      }

      .st11 {
        fill: #e4d501;
      }

      .st12 {
        fill: #4e0ffd;
      }

      .st13 {
        fill: #1cf1d5;
      }

      .st14 {
        fill: #ae433b;
      }

      .st15 {
        fill: #391fda;
      }

      .st16 {
        fill: #5b4051;
      }

      .st17 {
        fill: #6a6d89;
      }

      .st18 {
        fill: #f3e100;
      }

      .st19 {
        fill: #4f0efd;
      }

      .st20 {
        fill: #7275a6;
      }

      .st21 {
        fill: #312f30;
      }

      .st22 {
        fill: #1df1d3;
      }

      .st23 {
        fill: #1d264d;
      }

      .st24 {
        fill: #01fedc;
      }

      .st25 {
        fill: #4021e7;
      }

      .st26 {
        fill: #2cf2c4;
      }

      .st27 {
        fill: #dcd70b;
      }

      .st28 {
        fill: #01c7b8;
      }

      .st29 {
        fill: #40556e;
      }

      .st30 {
        fill: #fb2eed;
      }

      .st31 {
        fill: #00c7b8;
      }

      .st32 {
        fill: #1a1e45;
      }

      .st33 {
        fill: #1ef0cf;
      }

      .st34 {
        fill: #19f1d7;
      }

      .st35 {
        fill: #aae143;
      }

      .st36 {
        fill: #faec2d;
      }

      .st37 {
        fill: #39fb93;
      }

      .st38 {
        fill: #34e2de;
      }

      .st39 {
        fill: #fded01;
      }

      .st40 {
        fill: #1ef0d1;
      }

      .st41 {
        fill: #f4b695;
      }

      .st42 {
        fill: #8785fb;
      }

      .st43 {
        fill: #2fd87e;
      }

      .st44 {
        fill: #c1bfa5;
      }

      .st45 {
        fill: #21ded0;
      }

      .st46 {
        fill: #480cea;
      }

      .st47 {
        fill: #37d783;
      }

      .st48 {
        fill: #5a15e4;
      }

      .st49 {
        fill: #41c388;
      }

      .st50 {
        fill: #17f2dd;
      }

      .st51 {
        fill: #4afee9;
      }

      .st52 {
        fill: #ab6f5a;
      }

      .st53 {
        fill: #6deb82;
      }

      .st54 {
        fill: #f6ed07;
      }

      .st55 {
        fill: #470ce4;
      }

      .st56 {
        fill: #d2a2bb;
      }

      .st57 {
        fill: #14f1d6;
      }

      .st58 {
        fill: #fcf7f4;
      }

      .st59 {
        fill: #8485f9;
      }
    </style>
  </defs>
  <g id="Layer_2-2">
    <g>
      <path class="st17" d="M479.5,0c10.7,1.5,15.7,12.1,14,22l.6,5c.4,77.6.2,155.3-.6,232.9,1.4,7-.7,12.6-5.9,17.5-2.2,2.1-6.7,6.3-9.1,3.5-1,2.5-3.6,3.6-5,1-20,.9-41.1.8-60.9,0-1.8-2.3.1-3,2.6-3.1,15.9.6,31.3.7,46.4.1,4-.7,8.3-1,13-1l1.1-2.4c8.7-2.6,12.4-10.6,12.9-19.2V25.5c-1.7-13.8-5.6-19.3-19.6-21.6H25.6c-12.3,1.7-17.6,6-19.2,18.3l-.4,18.2-2,1.6-1.5.5c-.8,72.3-1.5,146.6-.2,218.7l-1.3.7c-.3.9-.6.9-1,0V19C.8,10.1,5.3,1.1,15,0h464.5Z"/>
      <path class="st32" d="M474.5,278c-4.5.5-8.8.5-13,0-2,1-2.9.1-4-1.5l-13-21.6c-3.9-6.3-9.8-9.9-17.9-10.6-5.4-6.7-11.8-6.9-19.7-6.2l-1.4-2c-8,2.6-19,3.1-27.6,2.8-3.2-.1-5.3-7.1-1.4-7.8-3.2-1.7-3.1-8.3,0-10-.9-.1-.9-.4,0-1-2.7-3.3-1.2-4.8,1.5-7.2,13-4.6,19.5-16.4,25.5-28,.7-1.1,1.7-.7,3,1.2l1.9-1.1c10.4,4.9,22.1,4.2,32.1-1.6l2.9.7c24.6-17.6,14-56.9-15.7-60.8-3.3-.4-8.6-.6-11.1,1.2-6.2.5-6-9-5.1-12.8-.9-5.9-.9-11.6,0-17h-.9c-.3-4.4-1-8.6-2.1-12.5l-2.3-.7c-1.9-2.4-5.8-11.2-5.7-14.3-2.7,1-3.9-.9-2-3l-2.7-.9c-3.5-7-12.1-12-19.3-15.1-3,.7-6.3.2-10-1.4-6.3-1.7-12.6-2.3-19-1.6l-2,2.2c-10.4,1.6-19.5,7.6-27.1,14.7h-3c-5.6,7.1-9.7,14.3-11.5,23.1-1.4,7-2.1,27.8-.5,34.4,3.2,1.2,1.1,8.5-2.4,5.5-.1.6-.3,1-.5,1-3.4.2-11.4.2-14.9,0-.2,0-.5-.4-.7-.9v1.1c-21.3,5-33.3,31.4-21.5,49.9l3.1.5c11.3,13.8,28,19.3,43.7,9.1l3.2.4,2.8,1.4c6,13.5,15.7,22.8,29.4,27.5-.4,2.1-.8,4.5-1.3,7.1.4,3.3.7,6.6.8,10,3-.6,2.3,5.8,1.2,6.3-7.5,2.9-23.9,1.7-31.9-.2l-1.2,2c-8.4-.9-14.2.6-20.3,6.7-6.9,2.2-12.1,4.8-15.7,11.4l-11.9,20.4c-.5,1.1-1.7.8-2.8.4,0,.5.1,1,0,1.3-.3.6-11.6,1.1-13.2.9,1.2-2.7,1.2-6.4.3-9.2l-2-1.5c.7-11.5-5.4-18.3-16.4-20.1l-3.6-4.4c-6.8-4-14.8-5.3-23.9-4l-1.1-2c-6.4,2.5-12.6,2.5-19,0l-2-3c.4-2.3-.6-4.3-3-6-3.3-.9-3-12.5,0-14l1.3-2.6c15.2-6.4,25.4-21.4,27.7-37.6-.4-4.9-.5-12,5.9-8.8,1.6,8.6,9.1,2,7.1-6.8-.2-.9.2-1.6.9-2.2.6-1.9,1.5-2,2,0,4.1-1.9,3.2-5,0-7.9v-2.1s-2-1.5-2-1.5c.2-5.2-.1-10.4-1.1-15.5-2.9.4-4.3-5.8-3-8-2.1-1.7-3.1-3.4-3-5l-2-2.8c.4-22.1-.4-45.1-17.1-61.7-20.4-20.3-49.9-21.2-73.9-6.6.3.8.5,1.8,0,2.2-17.8,14.1-25.7,20.8-29.8,46.3-1.7,24.2-1.5,48.5.7,72.9,1.6,19.5-2.8,35.4-16.9,49,6.4-.7,12.5-2.9,18.4-5.4l2.6,1c3.9.7,1.6,12.9-2,13l-1,3.1c-7,7.7-4,9.4,9.1,5h2.9c.3-1,.6-1,1-.1,3.1.5,2.2,6.2-1,6-4.2,3-8.1,6.3-11.7,9.9-12.2,2.1-18.2,11.2-18,27.1l-2.3,1c-.2.9-.5.9-1,0-.3.5-.7,1-1.2,1.3-2.2,1.4-47.2,1-52.8-.2s-16.3-9.2-13.9-15.1l-1.6-9.4c-2-67.1-.9-134.5.6-201.6-2.3-3.4-2.3-8.7,0-12C4.3,23.3.9,4.5,25.5,2h443.5c14.4,1.7,20.4,9.4,21.5,23.4v231.1c-.9,10.7-5.1,18.8-16,21.5Z"/>
      <path class="st6" d="M4,42c0,4,0,8,0,12-1.7,52.2-1.8,109.8-1.7,163.6,0,12.4.5,24.8,1,37.1.2,3.6.9,6.8,1.7,10.2,2.6,6.3,8.7,12.6,15.7,13.8,13.8,2.3,37.1,0,52.2.2,2.8.5,3.4,1.2,1,3-17.8.8-36.2,1.5-53.9,0-9-.8-18.6-11-19-20V36.5l3,5.5h0Z"/>
      <path class="st29" d="M412.5,282h60.9c-.5,0-2,1.6-3.4,1.1-52.1,0-104.3-.1-156.4,0-20.6,0-41.3,0-61.9,0-1.2-1.7-1.1-2.8.6-1.7,21.7-.4,45,.2,67.3.7,21-3,43.1-3.1,64.5-2.9,5.9-.4,11.8.2,17.5,1.9,2.5,0,7.2,1,11,1h0Z"/>
      <path class="st29" d="M474.5,278c-3.5.9-12.4.6-13,1v-1h13Z"/>
      <path class="st0" d="M21,283c0-.2-.8-.6-1-1,16.6,1.4,36.8,0,53.9,0l4.3-1.3c41.6.8,83.1.9,124.6.3l.9-1c15.1-1.4,30.1-1.8,45.2-1.3-1.8-2.4-1.2-4.4.8-6.7,2.2,1.2.4,7.4,1,8,1.3,1.3,10.3-1.1,12-1,2.1-.8,4.9-.8,8.4,0h41.9c.5-2.9,1.4-4.9,2.7-6.1,2.7-.4,3.7,1.7,2.9,6.2l1.1,2.8c-20.8,0-41.6-.3-62.5,0-1.7,0-4.4-.6-5.5,1"/>
      <path class="st20" d="M120.9,280c3.2-3.8,11.4-2.9,16-1,2.1,0,5.7,1,9,1,19,0,38,0,56.9,0h1c1.8,2.7,1,1.9-1.5,2-41.5,2-86.5.1-128.4,0l-1-3h1c15.3.3,31.3.9,46.9,1h0Z"/>
      <path class="st17" d="M5,265c-1.2-2.9-1.8-4.1-2-7.5-2.5-32.3.2-71,0-104.1,0-25.9-.4-52-1.1-78l2-21.5c-.5,65.2-3.3,137,0,201.5.2,3.3,1.2,6.2,1,9.5h0Z"/>
      <g>
        <g>
          <path class="st31" d="M461.5,278c.9.3.9.6,0,1-.1,0,.2,1.4-.2,1.8-1.6,1.4-37.6.2-43.3.2-1.7,0-4.4-.6-5.5,1-3.1.7-8.5.8-11-1,3.6-.9,4.9-1.9,4-3-.8,0-2-.2-2-.7-.6-10.5-.7-24.9,0-35.3-.6-3.3,0-5.3,2-6,6.6.1,12.1-1.3,17.9,2.6,1.5,1,2.7,3.2,4.1,3.9,3,1.5,6.9.9,10.9,3.1,9,4.9,15.3,24.8,23,32.4h0Z"/>
          <path class="st52" d="M344.6,222c0-.4,1.4-5,1.6-5.1.5-.4,11.8-1.9,13-1.8,3.6.2.9,5,9.9,3.9,3.7-.5,3.4-3.4,7.5,1.1,0,.3,0,.7,0,1l-.8,2.1h-23.2c-6.2-.6-6.2,1.8-4.2,6.8l26.6-.9,1.5,1.9c.1,1.8-.8,5.1,1.6,5.9,9.1-.6,18.2-1.1,27.3-.9v42c.6,1.4-.7,2.4-4,3-27,0-54.7,1-81.9,1-5.6-1.2-1.2-5.7-4-9l-1.9-3.7c-.5-4.9-1.9-26.9-.4-29.5.4-.7.9-1.3,1.4-1.8,10.3-.4,20.7-.4,31-1-.2-5-1.6-9.9-1-15h0Z"/>
          <path class="st18" d="M300.7,127c-7.8,7.1-13.5,15.4-6,25.5,5.6,7.5,10,4.3,17.8,6.6l1.1,26.9c-19.8,12.9-35.9,6.9-49.9-10-12.7-26.1,8.2-55.2,37-49Z"/>
          <path class="st18" d="M443.5,184c-8.5,5-16.2,7.1-26.2,5.7-2-.3-9.6-2.5-10.8-3.7-2.4-2.7,0-7.3,0-10.5.1-6.2-.2-12.4,0-18.5,13.9.5,25.4-4.6,22.9-20.4-1.2-7.6-7.3-8.2-11.9-12.6,35.2-4.1,52.4,36.7,26,60h0Z"/>
          <path class="st28" d="M314.6,238c-.4,11.7,1.4,23.3,1,35-.1,2.9,1.2,7.5-2.5,8-15-.4-30,.6-45,0-2.6-.1-5-2-5.5-2,6.7-7.9,12.9-27.1,22.3-31.2,7.4-3.2,5-.6,11.6-6.3,5.3-4.6,11.7-3.2,18-3.4h0Z"/>
          <path class="st11" d="M359.6,66c2.3-1.3,4.3-2.8,6.2-4.5,3.1,7.4,9.3,6.3,14.7,2.7,1.1,5,4.8,5.4,9,4.8l1.1-.8c2.5,1.6,6.7,3.9,7.7-.8l2.2-.5c2.9,4.2,6.8,10.1,8,15,.9,3.8,3.2,33.7,2,35-3.3.1-8-2.1-11-2-.9-.3-.9-.6,0-1l-2.2-2.3c-1.5-22.9-18.1-41.7-42.1-39.9l-2.7-1.8c-.9-.3-.9-.6,0-1,.3-.9.7-.9,1,0l.2-1.3c3.5.3,4.5-.2,2.8-1.7.7-.8,2.2-.7,3,0h0Z"/>
          <path class="st54" d="M347.6,45l8-.6c8-.7,6.8,7.2-1,6.6v1.2c-7.9,4-4.9,11,2,13.8,5.1,3.5.7,2.8-3,3-1.8-.1-2.5-.6-3.1-2.1-4.3,2.6-9.6,5.3-14.6,2.7-1.8,3.9-9.4,5.1-12.3,2.4-4,0-1.2-5.3.9-4.7,3.4,3.8,6.8,2.5,9.1-1.3-.4-2.3-1.4-4.3-3-6-4.9-1.9-7.2,2.6-6.7,7.1-6.4.6-8.1,2.2-5.2,4.9l-1.1,2.1c-1.6,2.4-3,1.1-4.5-.8-6.6,4-7.6,39.9-5.1,42.1.7.6,7.4.1,7.4-2.3-.2-17.4,8.4-34.3,24.6-42,2.6-1.2,11.2-4.5,12.6-1.9v1l-1.2,2.2c-19.6,5-31.6,22.5-30.7,42.7l-2,3.1c-2.8,0-5.6-.2-8.4,0-1.8.2-6.6,2.9-6.6.4v-28c0-3.4,3.2-12.8,4.8-16.2,2-4.3,5.3-7.9,7.2-12.3,8.6-8.4,19.6-16,32-17h0Z"/>
          <path class="st36" d="M376.6,221c-.2,3.1-.2,6.9,0,10l-31,1c.4-1.9-.6-9.1.1-9.9,1.9-2.2,26.2-.6,30.9-1.1h0Z"/>
          <path class="st27" d="M376.6,48c7.9,3.1,15,8.4,20.2,15.2l-3.2.8c-2.5,3.6-3.2-.2-2-3-3.2-3.5-7-2.8-11-1.6l-.9-2.4c-3.8-5.3-10.1-5.6-13.3.5l-4.7-5.5c-1.9.5-5.6.4-7-1,3.9-2,4.6.3,4-6-3.6.2-7.4-.3-11,0,9.6-2.3,20.3-1.5,29,3h0Z"/>
          <path class="st5" d="M398.6,64c-1.6-.1-3.4.2-5,0,1.6-1.6,2.7-.2,1-2.5-3.2-4.3-13.1-11-18-13.5,8.5,1.7,16.6,9.4,22,16h0Z"/>
          <path class="st38" d="M405.5,278c1.4-.3,5.5,1.2,6,3h-10c.3-.9,3.5-2.9,4-3h0Z"/>
          <path class="st52" d="M352.6,70c28.2-2.8,45.6,17.2,47,44-5.4,0-11-.2-16.6-.7-9.9,2-19.7,3.2-29.4,3.7-11.4-4.2-22.8-3.6-34,1-.3,0-.7,0-1,0,.1-10.8,1-22.1,7.6-30.9,5.7-7.8,16.6-16.1,26.4-17.1Z"/>
          <g>
            <path class="st21" d="M318.6,118c.2-.9.5-.9,1,0,10.3-3.2,23.5-3.4,34-1,3.6.7,7.1.4,10.7-.9l.8.9c0-.6.1-1,.3-1.1,5.1-1.4,19.7-1.5,25.2-.9l1.5,2c0-3.5,5.1-3.4,7.5-2,1.7-2,4.8-2,9.3-.1,0-10.4-.9-20.9-2-31.3l1.7-1.6c3.1,2.3,1.6,6.3,2,9.5.1,1.3,1,2.7,1,3v17c0,.4,1.3,7,1.5,7.5,2.5,5.8,8.8,2.7,13.9,3.1,30.3,2.5,43.5,46.1,16.6,61.9l.2-2.9c21.2-20.1,8.8-55.1-20.9-55.4l-5.3-1.7c-1.7.6-.8,11.9-1.4,15.1-3.4,17-19.7,13.3-32.1,13.9-17.1.8-33.8.8-50.9,1-3.9,0-7.4,1.4-12,1.1-16.7-1.1-21.2-12.2-19.6-27.4l-.9-.6-3.2,1.5c-25.2-3.5-42.6,22.2-32.7,44.9l-1,2.6c-.5-.6-1.9-.7-2.5-2-7.4-15.7-.3-36.9,14.7-45.2,1.1-.6,8.7-3.8,9.2-3.8h16c3.1,0,1.4-7.8,1.5-9.4.2-20.4-2.8-38,13-53.5,2.2,2-1.9,7.7-3.9,8.4-3.9,6.4-6.5,13-8.1,20.1l.9.3c-.5,9-.4,18,.5,27l-1.3.7c3.3-.6,7.2-1,11.6-1.3,1.7-1.1,2.4-1.3,3.4.8h0Z"/>
            <path class="st30" d="M405.6,127c0,8.4,1.7,14.8-8.5,16-23.9,2.7-53.4-1.4-77.9,1-8.1-.6-7.7-8.8-7.5-15l93.9-2h0Z"/>
            <path class="st4" d="M399.6,114v1c-1,0-6.3,2-7.5,2h-27c-3.3,0-7.2,2.8-11.5,0,8.1-.6,7.7-1,14.5-2.9,10.5-3,21.1-4.4,31.4,0h0Z"/>
            <path class="st16" d="M353.6,117c-11.6.9-22.4.7-34,1,6.4-7.3,24.6-7.4,32.4-2.8.9.6,1.3,1.6,1.6,1.8Z"/>
          </g>
          <path class="st39" d="M353.6,69c-.3,0-.7,0-1,0-15.3,1.8-30.1,15.8-33.7,30.8-2.6,11.1,2.9,19.5-13.3,17.2-1-11.4-2.1-35.8,5.5-45,3-3.6,3.3,1.6,6.4,1.9,1.1-2,4.1-4.2,6-2,3-.8,7.3-.7,9-1.5s1.8-3.4,2-3.5c.4-.3,4.9,2.8,9.3,1.8,3.7-.9,7.2-8.2,9.7.2h0Z"/>
          <path class="st35" d="M379.6,57q-1.5,1.2,0,0c4.2,2,10.4-.8,12,4h-1l-2.3.6c-6.2-3.2-7.4,5.2-.9,4.3l1.2,2.1c.5.1.8.8,1,1-5.8,4.5-9-3-9.6-3.1-1.8-.3-3.5,1.6-5.1,1.9-6.1,1.3-8.9-4.8-9.7-4.8-.3,0-1.8,2.5-5.5,3-.9-.3-.9-.6,0-1,1.6-1.2,2.9-2.5,4-4,1.3-2.4.5-5.1-2.4-8l.4-1c3,1.1,4.2,4,4.5,4,.5,0,3.3-4.6,8.5-3.6,2.8.5,4.5,1.8,5,4.6h0Z"/>
          <path class="st26" d="M361.6,52c1,1.8,3.6,4.8,3.9,6.7.2,1.8-1.6,1.9-1.9,2.3-.4-1.2-.7-2.5-1-4-.8.2-1.8.3-2.2-.2-5.4-6.8-12.8,4.5-2.7,6.1l.9,2.1h1v1c-.8.1-2.2.1-3,0-8.4-1.1-10.4-10.7-2-15,2.4-.1,4.8.2,7,1h0Z"/>
          <path class="st26" d="M330.6,60c.5,0,1.7,1.5,3,.6,1.2-.9,1.5-3.8,3-5,2.9-2.5,8.8-2.2,10.4,1.5,4.1,9.4-7.8,15.3-12,6-1.4.7-1.1,2.2-1.5,3-.3.9-.6.9-1,0-2.1-1.6-4.1-3.3-6-5-.2-2.2,2.3-1.6,4-1h0Z"/>
          <path class="st33" d="M390.6,61c.4,2.7-.1,5-2,7-1.8-.4-4.3.8-6.1-1.4-4.8-6.1,3.5-10.5,8.1-5.6Z"/>
          <g>
            <path class="st7" d="M391.6,61c.8,2.3-1.7,2.5,2,3,1.7-1.7,3.4-1.7,5,0,.7.9,1.3,2,2,3-1.1,5.4-3.6,6.2-8.8,4.3-1.3-.5-1.6-1.9-2.2-2.3-1.5.8-1.9.4-1-1-1.4-1.8-.3-6.3,2-7,.3-.7.6-.7,1,0Z"/>
            <circle class="st13" cx="395.7" cy="68.2" r="3.1"/>
          </g>
          <path class="st40" d="M379.6,57c2.3,13.9-17.5,10.6-11.8-.3,3.4-6.4,8.4-1.3,11.8.3Z"/>
          <path class="st40" d="M363.6,61c-1.2,2.2-.2,3.4-4,4-.3,0-.7,0-1,0,.7-2.1,1.4-4.4,2.1-6.8l1.9-1.2c.5,1.3,1.6,2.1,1,4h0Z"/>
          <path class="st34" d="M362.6,57c.7,4.2-.8,5.8-4,8-10.5-.7-10.7-13-.5-12.1,3.7.3,3.4,1.4,4.5,4.1Z"/>
          <g>
            <path class="st52" d="M417.5,124c25.3,6.6,14.8,37.3-9.1,35.3,1,9.4.3,18.4-1.9,26.7-2.4-.5-2.1,1.2-2.8,2.6-5.5,10.3-8.3,15.8-18.2,22.8-5,3.5-8.3,1.5-8.9,8.6-4.9,0-9.9-.2-15.2-.5-3.6-5.3-13.5-1.2-16.7,2.5-.3-1.4.5-5.1-.1-5.9-.3-.4-7.5-2.6-9.6-3.9-10.1-6-16.6-15.7-21.3-26.2l-2-.8-1.2-24.5c-10.4-.2-18.1-3.4-20.9-14.2-1.8-7,3.5-18.6,11.1-19.5.8-.6,1.7-.7,2.5-.1-2.4,21.5,9.8,29.5,29.9,25.1l63.8-1.1c8.7,0,16-3.1,17.4-12.6.1-4.6.2-9.2.8-13.8,0-.6,1.6-.7,2.5-.5h0Z"/>
            <path class="st14" d="M369.6,188c2.7,0,5.3,0,8,0,3.4,3.4-8.8,13.7-12.4,14.1-4.9.5-10.7.4-14.9-2.2-4.8-3-7.4-6.6-8.7-11.8,8.4-3,19.6-3.3,28,0h0Z"/>
            <path class="st58" d="M341.6,188c-.2-.7-2.4-4.8-.4-5h38.4c1.6,7.5-5.6,1.8-10,5-9.3-.2-18.7.2-28,0h0Z"/>
            <path class="st2" d="M352.6,172c.9-5.2,6-8.8,10.5-5,7.6,6.2-6.2,5.3-10.5,5Z"/>
          </g>
          <g>
            <path class="st53" d="M330.6,60c-2.2,0-2.2,0-4,1-.3,2.8,0,9,3.8,4.6l2.2.4h1c-.5,1-.2,2.6-2,3.5-4.1,2-9-3.2-8,2.5-1.7.4-2.3,2.5-6,2-6.5-10.2,2.6-6.7,5.1-8.4,1.4-1,1.2-10.2,7.9-5.6h0Z"/>
            <path class="st22" d="M332.6,66c0,.2-2.5,3-2.7,3.1-4.6,1.1-7.9-5.5-3.3-8.1,3-.7,7,1.5,6,5h0Z"/>
            <path class="st50" d="M321.6,67v5c-6.9.8-6.8-5.9,0-5Z"/>
          </g>
        </g>
        <g>
          <path class="st37" d="M173.8,76l-2.2,1.8c-21.5-1.6-39.1,16.1-35.2,37.8l-1.6,2.4c-.2.9-.6.9-1,0l-.4,1c3.2,4,3.7,7.4,1.4,10,.9.8,1.8,1.8,2,3,.8,3.5.4,16.9,0,21l-2,3c1.9.9,1.9,2.1,0,3,.5,1,1,2.1,1.3,3.2,1.6,5.1.7,36.4-1,41.7-.4,1.1-.8,2.1-1.3,3.2l2,7.3c-.8,8.5-1.5,17.1-2,25.7l2,1.7c-.2,13.7-.4,26.4,11.1,35.7,0,1-.4,1.9-1.2,2.6-1.1,2.4-8.1,1.7-9-1-6.7-1.1-14.3-6.2-16-13l-1.1.5-5.5-8.5c-3.8-8.9-4.5-9.8-14-6.9l-.4-1c-.8-.3-.8-.6,0-1-.9-3,3.1-7.3,6-8,.5-1.4.9-4.4,1-6l-1.8-2.9c.2-6.7,0-13.3-.7-19.9-3,2.4-5.5,3-7.5,1.7-8.2,3.7-17.9,7.3-27,6.5,8.6-6.8,18.4-18.8,19.9-30.1,5.2-39.2-13.4-96.5,15.1-128.9,3-3.4,13.1-12.2,17-13.5,9.9-6.7,19.9-7.7,31.2-8.1,4.9-.2,18.8.2,21.1,4.6.7,1.4,1.4,26.7,1.1,29.6l-1.4,1.8h0Z"/>
          <path class="st43" d="M214.8,119l-.9.9c-3-1-6.1-1.6-9.1-1.9l-2.1-1.3c-2.2-15.6-11.9-33.8-27.8-38.5l-1.1-2.2c-2.9-5.1,1-29-2-31.5s-20.9-2.8-25.5-2.5c-8,.6-17,3.5-24.5,6,18.6-16.8,49.4-15.2,68.8-.4,24,18.2,24.4,43.3,24.1,71.4h0Z"/>
          <path class="st9" d="M141.8,240l2,1.3c-1.2,16.8,3.3,18,18.3,18.1,15.8,0,21.5-.2,19.7-18.2l2-1.1c6.3,0,12.7,0,19,0,.8,0,1.9.2,2,.7.8,8.9,1,28.4,0,37.1l-2,1.2c.9.3.9.6,0,1-18.9,2-38,2.2-56.9,0-.8-4.1-5.4-5.9-7.4-9.1-5.2-8.5-4.4-21.4-4.6-30.9.3-.9.6-.9,1,0,.4-3,6.4-2.9,7,0h0Z"/>
          <path class="st3" d="M146.8,231l2.3-2.1c9.1-.5,18.2-.3,27.2,0l2.4,2.1c1.7,0,3.3,0,5,0,0,3,0,6,0,9,.1,6.8,1.7,16.1-5.6,19.9-3.4,1.7-20.3,1.6-24.9,1.2-12.6-1.2-11.8-11.1-11.4-21.1-5.4-3.1-.5-14.8,5-9h0Z"/>
          <path class="st19" d="M227.8,246c4.4,3.5,5.3,6.6,6.2,11.9.9,5.4,1.1,18.1-2.7,21.5-9.6.3-19.1.1-28.4-.4v-39c6.4,0,18.6-1.2,23.6,3,1.4,1.2,1,2.3,1.4,3h0Z"/>
          <path class="st46" d="M105.9,241c-.8,2.3-3.9,6.5-6,8l-2.1,1.9c-2.3,8-2.6,16.7-.9,26l-1.9,2.1c.2-.8.5-1.9,1.1-2,3.1-.4,19.8-.5,22.4,0l1.4,2-1.7-1.8c2.8-3.7-9.2-24.9-10.6-24.8-4.8,2.3-15.6,1.6-7.7-2.4,2.6,1.2,8.4-2.6,10-1.6.9.6,7.9,14.2,11,17.6,2.2,3.6,3.8,11.7,0,14-15.3,1.9-31.8,1.7-46.9-1,2.6-10.7.6-21.5,11.6-27.9,3.2-1.8,7.3-1.5,9.3-2.7,2.5-1.4,4.9-9.3,11-7.5h0Z"/>
          <path class="st25" d="M217.8,124c2.2,4,1.7,4.2,3,8,.6,2.6,1.8,14.6,1.1,16.2-.5,1-1,1.2-2.1,1.8,2.5,1.6,1.9,3-1,3,2,2.1.7,4-2,3,1.4,2.8-2.2,4.4-4,2-1.4.5-2.7,1.3-4.4,1h-73.5v-3c.1-.6.2-1.1,1-1l62.1-.5,1.8-1.5c18.3,5.1,18.9-18.9,10.8-28.6l.2-2.4-3.3-1.3c-23.9.3-47.7,0-71.3-.6l.7-1.2c24-.9,48.2-.9,72.4,0,3.6-1,6.6,2.2,8.5,5h0Z"/>
          <path class="st55" d="M249.7,272c0,2.7,0,5.4,0,8-15.3,0-30.6,0-45.9,0-.2.9-.5.9-1,0v-1h27.8c2.8-10.9,2.9-23.3-2.9-33,5.4,4.7,11.6,2.6,17,8.5,4.7,5.2,5.1,10.9,5,17.5h0Z"/>
          <path class="st42" d="M178.8,217v14c-9.6-.4-22.5-.7-32,0-2-3.6-2-7.4,0-11-2.9,0-2.7-2.3,0-3,10.2,3.4,21.8,3.4,32,0h0Z"/>
          <path class="st8" d="M106.9,235h-1c-5.4.9-10.8,1.8-16.3,2.9,1.9-3.5,3.6-7.1,5.3-10.9,1-3.9,2.4-9.5,2-13,1.2-.5,9.7-5.4,10-5-.5,8.4.7,17.7,0,26Z"/>
          <path class="st15" d="M204.8,118c2.5.1,8,0,10,1,1.2.7,2.3,3.8,3,5-1.8-1.3-6.5-5-8.5-5h-72.4c-.2,1.8,2.3.9,3.5,1,21.9.9,44-.7,66,0,2.3-.2,3,1,4.5,2l-1.6,1.8c-21.3-1-42.8-1-64.5-.2-8,.8-11.6-1.1-10.8-5.6.3-.1.7,0,1,0l3.2-1.2c21.2-1.3,42.5-1.4,63.6-.2l3.1,1.5h0Z"/>
          <path class="st57" d="M221.8,159c4.2,5.1,1.6,13.4-4.9,14.6-4.4.8-5.1-2-3-5.6,1.8-.7,4.8-.5,4.6-3.5-.3-4.5-5.6-2.7-5.6-6.5.8-.3,3.5-1.5,4-2,1.8-2.5,6.6.2,5,3h0Z"/>
          <path class="st56" d="M223.8,149c-.3,2.8-2.3,3.4-4,1,.8-5.6-1.4-12.6,1-18,.4,1.3,2.5,2.6,2.9,5.6.5,3.6-.2,7.8,0,11.4h0Z"/>
          <path class="st45" d="M223.8,149c4.4.9,8.1,12.1,0,10-1.8-.4-2-1.5-1.8-3.1-1.9-.2-3.1-.6-3.2-2.9.2-.5.9-2.6,1-3,1.1,0,3.1-1.2,4-1Z"/>
          <path class="st49" d="M94.9,227c-.2.8.2,2-.2,3.2-.8,2.5-3.8,4-3.8,6.8,1.4,1.3,12.7-4.1,15-2l-21,5c3.8-4.2,7.3-8,10-13Z"/>
          <path class="st44" d="M218.8,153c4.9,1.6,5.6-.1,5,6-.6-.1-1.4.1-2,0-.9-1.1-3.6-2.2-5-3,.1-.1,1.9-2.8,2-3Z"/>
          <path class="st41" d="M173.8,76c16.3,1.8,30.5,26.6,31,42-23-1.1-46.8.8-69.9,0-5.4-24.9,14-44.8,39-42h0Z"/>
          <path class="st51" d="M210.8,122c7.1,5.1,6.7,13.5,6,21.5-1.3,14.5-9.9,11.2-20.6,11.4-3.8,0-7.2,0-10.9,0-16.5,0-33,0-49.5,0l.9-2,57-1-57.8-20.5-1.1-2.5c0-2.2-1.8-7-1.9-9.6,0-1.3,0-1,.9-1.4,0,2.7,1.2,2.8,3.4,3.1,20.6,2.3,45.7-1.4,67,0,2.2.1,4.3.8,6.4,1h0Z"/>
          <path class="st24" d="M134.9,129l64.9,23-1.5,2-62.4,1-1,1c0-8.5.1-18.7,0-27h0Z"/>
          <path class="st12" d="M99.9,250l-2,2c3,.5,8-2,10.5-1.6s3.8,6.5,5.1,8.5c4.8,7.5,8.3,9.2,6.4,20.1h-25c0-5.3-1.2-11.4-1.1-16.5,0-2,.7-9.4,1.2-10.8.7-2,3.5-1.7,4.9-2.6v1h0Z"/>
          <path class="st47" d="M146.8,217v3l-.7,2.4-9.3,3.8.2,12.5-2.1,1.3h-1c-.2-11,0-22,0-33,2,5,8.1,8.4,13,10h0Z"/>
          <path class="st59" d="M136.9,279c-4.3,0-10.6,1-16,1v-14c4.2,4.7,10.7,9.5,16,13Z"/>
          <path class="st23" d="M146.8,220v11c-7.1.5-4.8,2.7-5,9h-7c.6-3.3-1.1-12.8.5-15,.5-.8,9.7-4.2,11.5-5h0Z"/>
          <g>
            <path class="st10" d="M212.8,158c5.2.4,10.9,6.3,5.4,10.7-1.5,1.2-3.4,1.1-4.4-.7-7,2.8-3,2.3-4,9.5-2.3,16.9-14.4,33.9-30.9,39.5-1.6,2.8-4.6,4.2-8.9,4.1-6.7,1-18.9,1.4-23-4.1-4.7,3.1-13.2-4.1-13-10,0-16,1-32.3,1-48l.3-1.3c25.2-.5,50.4-.9,75.7-1.1l1.9,1.4h0Z"/>
            <path class="st48" d="M156.4,183c1.1-.3,4.8,1.1,6.9,1.1,3.3,0,7.9-2.8,8.5,1.4-3.6,1.8-4.9,6.8-9.4,6.5-3.6-.2-9.9-7.9-6-8.9h0Z"/>
            <path class="st1" d="M168.8,172c-3.4-.2-7.1.3-10.5,0-4.2-.3-3.1-2.5-.4-4.5,4.7-3.5,9.2-.3,11,4.5h0Z"/>
          </g>
        </g>
      </g>
    </g>
  </g>
</svg>