<?xml version="1.0" encoding="UTF-8"?>
<svg id="Layer_1" data-name="Layer 1" xmlns="http://www.w3.org/2000/svg" viewBox="0 0 59.46 144.33">
  <defs>
    <style>
      .cls-1 {
        fill: #cb40f5;
      }

      .cls-2 {
        fill: #8862b6;
      }

      .cls-3 {
        fill: #9949d6;
      }

      .cls-4 {
        fill: #a438ea;
      }

      .cls-5 {
        fill: #6c2cda;
      }

      .cls-6 {
        fill: #8537dc;
      }

      .cls-7 {
        fill: #f245fa;
      }
    </style>
  </defs>
  <path class="cls-2" d="M45.69,4.16c.1,1.15-.26,2.05-1.2,2.63l-21.88-.14c-1.37,3.11-3.21,4.1-5.52,2.98-.83,1.28-1.12,2.55-.19,3.94-5.56,5.71-10.53,12.5-11.92,20.48l-2.87,1.5,1.51.42c1.56,32.31,3.49,64.7,5.79,97.17l-1.86,2.01c1.57-2.54,3.38-1.63,5.45,2.73.22-3.6,1.43-3.31,2.72,0,2.15.54,3.51,1.45,4.09,2.73.76-2.58,1.95-2.59,2.72,0l1.75-2.62c5.01-.05,9.88-.09,14.59-.11,1.11-.25,3.41.36,4.09,0,.17-.09-.46-3.5,2.72-2.73-1.61,4.46-2.18,2.03-2.72,2.73-8.19,10.45-27.33,7.29-35.41-2.73-1.71-2.12-5.45-5.08-5.45-8.87v-43.66c0-3.4-1.28-9.52-1.36-14.33C-.25,54.63-.25,40.98.75,27.35,1.54,24.57,15.98,2.93,17.42,2.32c6.48-2.74,23.4-4.06,28.27,1.84Z"/>
  <path class="cls-7" d="M41.6,39.63c2.24.77,1.97,2.08,1.36,4.09,2.62.41,2.46,1.48,0,2.73.06,2.26.08,4.57,0,6.82,3.87,2.69,4.03,8.31,0,10.91,3.14,1.59,1.1,2.98-1.36,4.09.99,1.21.8,2.77,0,4.09,3.78,1.76,3.85,5.1,0,6.82-.06,1.36.07,2.73,0,4.09,2.19.51,2.14,1.77,0,2.73-.69,10.75-.54,44.44-2.72,51.85-1.25,4.22-12.36,2.95-16.34,2.73l-2.34-4.81c.12-24.11-.42-48.23-1.65-72.37-1.11-8.52.22-15.54,3.99-21.06,3.21-4.33,15.71-7.04,19.06-2.73Z"/>
  <path class="cls-1" d="M45.69,4.16c7.69,9.32,10.1,13.25,9.53,25.92-4.57,14.27-26.73,8.93-27.23-5.46-3.06.25-4.72-2.55-4.98-8.41-5.98,1.22-10.55-.78-5.91-6.6,2.38-2.15,2.82-5.29,3.59-5.54,1.29-.42,22.58-.31,25.01.09Z"/>
  <path class="cls-4" d="M27.98,24.62c8.62,12.52,15.41,15.26,27.23,5.46-.53,11.74,1.36,19.2-12.26,16.37-.02-.91.06-1.83,0-2.73.35-1.73-.11-3.1-1.36-4.09-4.17-.29-13.69,2.51-19.06,2.73-3.99,29.53,2.98,67.76,0,98.23-.89-.05-1.84.11-2.72,0-1.03-1.14-2.39-2.04-4.09-2.73-.85-.16-2.08.23-2.72,0l-3.02-3c-3.13-23.73-3.63-47.68-1.52-71.85l-1.5-18.09,1.96-3.92c2.59-2.87,11.94-2.29,13.62,1.36-.63-.21-1.22-.47-1.68-.88-1.21-1.07,5.05-14.78,7.12-16.86Z"/>
  <path class="cls-5" d="M17.09,9.62c-1.75,7.4,5.86,2.51,8.02,4.26.57.46,1.75,9.11,2.88,10.75,1.95,5.96-4.92,13.8-5.45,17.74-4.61.19-9.2.19-13.62-1.36-2.89.52-5.16-1.3-6.81-5.46.42-9.37,7.96-19.6,14.98-25.92Z"/>
  <path class="cls-6" d="M2.11,35.54c2.26-2.23,6.58,4.5,6.81,5.46,6.65,28.11-4.26,68.16,4.09,96.87-.99-.36-5.31-2.46-5.45-2.73-2.69-5.21-5.95-88.51-5.45-99.6Z"/>
  <path class="cls-6" d="M15.73,137.87c2.77.52,4.79-1.56,4.09,2.73-2.02-.25-3.38-.57-4.09-2.73Z"/>
  <path class="cls-3" d="M42.96,64.19c12.16,1.81.45,3.73,0,4.09-.39,1.19-.84,1.17-1.36,0,.09-2,1.35-3.8,1.36-4.09Z"/>
  <path class="cls-1" d="M42.96,68.28c-.22.18.51,3.48-1.36,4.09.04-.9-.08-2.21,0-4.09h1.36Z"/>
  <path class="cls-1" d="M41.6,39.63c6,.42,1.28,2.83,1.36,4.09l-1.36-4.09Z"/>
  <path class="cls-3" d="M45.69,135.14l-2.72,2.73c-2.51,1.92-3.88,1.92-4.09,0-.62-.19-1.2-.43-1.66-.82-1.88-1.6.92-43.25,1.55-49.16l2.83-1.87c.66-1.01.77-1.91,0-2.73-3.68-1.25-3.69-2.83,0-4.09,6.57-5.58,8.85-13.39,6.84-23.43-2.86.67-4.68-.16-5.47-2.5-3.36-2.47-3.36-4.36,0-6.82,1.78-1.65,4.52-2.73,8.25-3.24.33-5.17,1.66-9.55,4.01-13.14l-2.65-2.2c.63-7.99-2.42-14.58-7.69-20.42l.81-3.31c10.78,1.78,13.12,10.02,13.73,19.81.86,13.93-9.21,98.64-13.73,111.17Z"/>
  <path class="cls-4" d="M42.96,53.28c17.19-1.06,8.2,1.64,8.17,3.64-.14,7.29,1.65,23.22-9.53,22.28.1-2.27-.09-4.56,0-6.82.35-1.54.8-2.9,1.36-4.09v-4.09c.15-3.62-.13-7.29,0-10.91Z"/>
  <path class="cls-4" d="M48.4,88.76c.44.47-.64,13.38-4.05,12.26-3.25-2.34-.49-17.12,4.05-12.26Z"/>
  <path class="cls-4" d="M41.6,83.29c4.37-.73,3.91,3.63,0,2.73.06-.9-.04-1.82,0-2.73Z"/>
</svg>