<?xml version="1.0" encoding="UTF-8"?><svg id="Layer_2" xmlns="http://www.w3.org/2000/svg" viewBox="0 0 189.15 87.48"><defs><style>.cls-1{fill:#801a2a;}.cls-2{fill:#fff;}.cls-3{fill:#ff3454;}</style></defs><g id="illustrations"><rect class="cls-1" y="33.1" width="189.15" height="54.38" rx="13" ry="13"/><path class="cls-3" d="M175.91,54.38H13.23c-7.28,0-13.23-5.96-13.23-13.23L6.86,13.43C8.81,5.54,15.89,0,24.01,0h141.13c8.12,0,15.2,5.54,17.15,13.43l6.86,27.72c0,7.28-5.96,13.23-13.23,13.23Z"/><path class="cls-2" d="M23.03,42.84c-2.8-.81-5.12-1.98-6.93-3.51,2.81-1.87,4.2-2.81,6.93-4.68,1.38,1.06,3.01,1.91,4.89,2.54,1.88.63,3.8.95,5.73.95,2.26,0,4.07-.31,5.4-.92,1.33-.61,2.11-1.47,2.34-2.57.15-.7,0-1.28-.43-1.74-.43-.47-1.02-.85-1.76-1.15-.74-.3-1.94-.71-3.6-1.25-2.19-.74-3.27-1.11-5.43-1.84-2.43-.8-4.27-1.92-5.52-3.36-1.25-1.44-1.53-3.26-.88-5.46.52-1.76,1.64-3.36,3.32-4.81,1.68-1.45,3.74-2.59,6.17-3.44,2.43-.85,5-1.27,7.74-1.27,2.4,0,4.68.37,6.86,1.12,2.18.75,4,1.79,5.49,3.11-2.09,1.73-3.15,2.6-5.3,4.34-1.31-.9-2.63-1.56-3.97-1.99s-2.82-.65-4.47-.65c-1.77,0-3.25.28-4.43.85-1.18.56-1.91,1.35-2.16,2.34-.18.7-.05,1.28.38,1.74.43.46,1.02.85,1.77,1.15.75.3,1.92.72,3.54,1.25,2.09.68,3.14,1.02,5.26,1.69,2.65.86,4.62,2,5.91,3.41,1.29,1.41,1.76,3.21,1.38,5.41-.32,1.83-1.28,3.5-2.92,5.01-1.64,1.51-3.88,2.72-6.7,3.61-2.82.9-6.03,1.34-9.6,1.34-3.18,0-6.19-.41-9-1.22Z"/><path class="cls-2" d="M68.68,16.65h-11.83c.37-2.29.56-3.44.93-5.73h31.85c-.06,2.29-.1,3.44-.16,5.73h-11.89c-.82,10.73-1.24,16.09-2.06,26.82h-9.89c1.22-10.73,1.82-16.09,3.04-26.82Z"/><path class="cls-2" d="M102.01,42.02c-3.21-1.36-5.68-3.33-7.39-5.91-1.72-2.57-2.51-5.59-2.45-9.05.06-3.49.93-6.49,2.56-9,1.63-2.51,3.84-4.43,6.64-5.76,2.8-1.33,6-1.99,9.67-1.99s6.95.66,9.92,1.99c2.97,1.33,5.41,3.26,7.33,5.78,1.92,2.53,3.16,5.52,3.65,8.97.49,3.46.08,6.47-1.29,9.05-1.37,2.58-3.58,4.54-6.62,5.91-3.04,1.36-6.69,2.04-10.89,2.04s-7.93-.68-11.14-2.04ZM120.4,35.14c1.75-1.99,2.42-4.69,2.07-8.08-.35-3.36-1.55-6-3.55-7.92-1.99-1.93-4.47-2.89-7.5-2.89s-5.44.96-7.17,2.87c-1.73,1.91-2.59,4.56-2.52,7.95s1.08,6.08,3.08,8.08c2,1.99,4.68,2.99,7.98,2.99s5.86-1,7.61-2.99Z"/><path class="cls-2" d="M137.67,10.92h13.83c4.99,0,9.15.81,12.58,2.42,3.43,1.61,5.73,4.24,6.84,7.9,1.08,3.59.32,6.3-2.4,8.12-2.72,1.83-6.69,2.74-11.8,2.74h-5.87c.96,4.55,1.44,6.82,2.4,11.36h-9.88c-1.89-10.85-3.79-21.7-5.68-32.55ZM154.83,26.67c5.77,0,8.18-1.81,7.22-5.43-.46-1.73-1.5-2.97-3.11-3.74-1.61-.76-3.85-1.15-6.75-1.15h-4.67c.87,4.13,1.31,6.19,2.18,10.32h5.14Z"/></g></svg>