<?xml version="1.0" encoding="UTF-8"?><svg id="Layer_2" xmlns="http://www.w3.org/2000/svg" viewBox="0 0 189.15 87.48"><defs><style>.cls-1{fill:#801a2a;}.cls-2{fill:#fff;}.cls-3{fill:#ff3454;}</style></defs><g id="illustrations"><rect class="cls-1" y="33.1" width="189.15" height="54.38" rx="13" ry="13"/><path class="cls-3" d="M175.91,54.38H13.23c-7.28,0-13.23-5.96-13.23-13.23L6.86,13.43C8.81,5.54,15.89,0,24.01,0h141.13c8.12,0,15.2,5.54,17.15,13.43l6.86,27.72c0,7.28-5.96,13.23-13.23,13.23Z"/><path class="cls-2" d="M20.86,42.84c-2.01-.81-3.63-1.98-4.85-3.51,2.23-1.87,3.33-2.81,5.49-4.68.94,1.06,2.08,1.91,3.42,2.54,1.34.63,2.74.95,4.17.95,1.67,0,3.03-.31,4.07-.92,1.03-.61,1.67-1.47,1.93-2.57.16-.7.1-1.28-.18-1.74-.28-.47-.69-.85-1.21-1.15-.52-.3-1.38-.71-2.57-1.25-1.56-.74-2.34-1.11-3.87-1.84-1.74-.8-3.01-1.92-3.82-3.37-.81-1.44-.88-3.26-.23-5.46.52-1.76,1.48-3.36,2.83-4.81,1.36-1.45,2.97-2.59,4.84-3.44,1.86-.85,3.8-1.27,5.83-1.27,1.78,0,3.43.37,4.99,1.12,1.55.75,2.82,1.79,3.82,3.11-1.68,1.73-2.53,2.6-4.26,4.34-.9-.9-1.82-1.56-2.78-1.99-.96-.43-2.04-.65-3.26-.65-1.31,0-2.43.28-3.34.85-.92.57-1.52,1.35-1.79,2.34-.19.7-.14,1.28.14,1.74.28.46.69.85,1.22,1.15.53.3,1.37.72,2.52,1.25,1.49.68,2.25,1.02,3.76,1.69,1.89.86,3.26,2,4.1,3.41.84,1.41,1.05,3.21.6,5.41-.38,1.83-1.22,3.5-2.56,5.01-1.34,1.51-3.08,2.72-5.24,3.61-2.16.9-4.57,1.35-7.21,1.35-2.35,0-4.55-.41-6.56-1.22Z"/><path class="cls-2" d="M52.52,10.92h6.43c-.8,5.08-1.2,7.63-1.99,12.71h11.78c.56-5.08.84-7.63,1.39-12.71h6.43c-.9,10.85-1.79,21.7-2.69,32.55h-7.32c.61-5.54.91-8.31,1.52-13.86h-12.06c-.87,5.54-1.3,8.31-2.17,13.86h-7.32c2-10.85,3.99-21.7,5.99-32.55Z"/><path class="cls-2" d="M88.15,42.02c-2.31-1.36-4.05-3.33-5.2-5.91-1.15-2.57-1.6-5.59-1.4-9.05.2-3.49.99-6.49,2.31-9,1.32-2.51,3.04-4.43,5.18-5.76,2.13-1.33,4.53-1.99,7.25-1.99s5.12.66,7.25,1.99c2.14,1.33,3.86,3.26,5.16,5.78,1.31,2.53,2.09,5.52,2.29,8.97.2,3.46-.23,6.47-1.37,9.05-1.13,2.58-2.86,4.54-5.17,5.91-2.31,1.36-5.05,2.04-8.15,2.04s-5.84-.68-8.16-2.04ZM102.08,35.14c1.39-1.99,2-4.69,1.9-8.08-.1-3.36-.87-6-2.26-7.92-1.39-1.93-3.18-2.89-5.42-2.89s-4.07.96-5.44,2.87c-1.37,1.91-2.13,4.56-2.23,7.95-.1,3.39.52,6.08,1.91,8.08,1.39,1.99,3.33,2.99,5.77,2.99s4.38-1,5.77-2.99Z"/><path class="cls-2" d="M124.33,42.02c-2.5-1.36-4.5-3.33-6-5.91-1.5-2.57-2.35-5.59-2.62-9.05-.27-3.49.11-6.49,1.09-9,.98-2.51,2.45-4.43,4.4-5.76,1.95-1.33,4.26-1.99,6.98-1.99s5.21.66,7.52,1.99c2.31,1.33,4.29,3.26,5.94,5.78,1.65,2.53,2.83,5.52,3.5,8.97.67,3.46.64,6.47-.15,9.05-.79,2.58-2.24,4.54-4.37,5.91-2.13,1.36-4.77,2.04-7.88,2.04s-5.93-.68-8.43-2.04ZM137.32,35.14c1.12-1.99,1.37-4.69.81-8.08-.56-3.36-1.68-6-3.33-7.92-1.65-1.93-3.57-2.89-5.81-2.89s-3.94.96-5.05,2.87c-1.11,1.91-1.51,4.56-1.16,7.95.36,3.39,1.34,6.08,3,8.08,1.66,1.99,3.73,2.99,6.18,2.99s4.25-1,5.37-2.99Z"/><path class="cls-2" d="M154.06,16.65h-8.75c-.46-2.29-.7-3.44-1.16-5.73h23.57c.69,2.29,1.04,3.44,1.73,5.73h-8.8c2.85,10.73,4.27,16.09,7.12,26.82h-7.32c-2.56-10.73-3.83-16.09-6.39-26.82Z"/></g></svg>