<?xml version="1.0" encoding="UTF-8"?><svg id="Layer_2" xmlns="http://www.w3.org/2000/svg" viewBox="0 0 189.15 87.48"><defs><style>.cls-1{fill:#801a2a;}.cls-2{fill:#fff;}.cls-3{fill:#ff3454;}</style></defs><g id="illustrations"><rect class="cls-1" y="33.1" width="189.15" height="54.38" rx="13" ry="13"/><path class="cls-3" d="M175.91,54.38H13.23c-7.28,0-13.23-5.96-13.23-13.23L6.86,13.43C8.81,5.54,15.89,0,24.01,0h141.13c8.12,0,15.2,5.54,17.15,13.43l6.86,27.72c0,7.28-5.96,13.23-13.23,13.23Z"/><path class="cls-2" d="M35.03,44.06c-1.97-5-2.89-7.5-4.58-12.5h-4.93c-1.36,5-2.04,7.5-3.4,12.5h-8.15c3.39-11.25,6.79-22.49,10.18-33.74h11.97c3.96,0,6.9.8,8.91,2.4,2.01,1.6,2.69,4.25,1.96,7.93-.47,2.41-1.45,4.44-2.97,6.07-1.52,1.64-3.44,2.85-5.77,3.64,2.19,5.48,3.37,8.22,5.92,13.69h-9.16ZM27.05,25.92h4.49c2.29,0,4.14-.44,5.52-1.32,1.38-.88,2.26-2.2,2.66-3.95.38-1.69.1-2.89-.84-3.62-.94-.72-2.54-1.09-4.81-1.09h-4.32c-1.08,3.99-1.62,5.98-2.71,9.97Z"/><path class="cls-2" d="M55.7,10.32h21.03c-.19,2.38-.28,3.56-.47,5.94h-14.25c-.41,2.96-.61,4.43-1.02,7.39h12.48c-.21,2.38-.31,3.57-.52,5.94h-12.78c-.47,3.41-.71,5.12-1.18,8.53h16.11c-.18,2.38-.28,3.56-.46,5.94h-24.62c1.89-11.25,3.79-22.49,5.68-33.74Z"/><path class="cls-2" d="M90.67,16.26h-9.71c.14-2.38.21-3.56.36-5.94h26.13c.12,2.38.18,3.56.3,5.94h-9.77c.11,11.12.17,16.68.28,27.8h-8.15c.22-11.12.34-16.68.56-27.8Z"/><path class="cls-2" d="M136.38,44.06c-3.85-5-5.7-7.5-9.26-12.5h-4.94c.52,5,.77,7.5,1.29,12.5h-8.15c-.82-11.25-1.65-22.49-2.47-33.74h11.97c3.96,0,7.2.8,9.81,2.4,2.61,1.6,4.28,4.25,4.94,7.93.43,2.41.21,4.44-.7,6.07-.91,1.64-2.38,2.85-4.4,3.64,4.24,5.48,6.45,8.22,11.06,13.69h-9.16ZM121.6,25.92h4.49c2.29,0,3.98-.44,5.03-1.32,1.05-.88,1.44-2.2,1.18-3.95-.25-1.69-.99-2.89-2.2-3.62-1.21-.72-2.94-1.09-5.22-1.09h-4.32c.41,3.99.62,5.98,1.03,9.97Z"/><path class="cls-2" d="M154.47,31.87c-6.44-8.62-9.48-12.93-15.17-21.55h7.65c2.01,3.22,3.04,4.84,5.14,8.06,1.85,2.98,2.79,4.46,4.71,7.44h.22c.07-.31.14-.64.2-.98.06-.34.13-.72.22-1.14.36-2.1.63-3.88.84-5.32.53-3.22.77-4.84,1.21-8.06h7.44c-1.5,8.62-2.44,12.93-4.69,21.55,1.26,4.88,1.89,7.32,3.15,12.19h-8.15c-1.11-4.88-1.67-7.32-2.78-12.19Z"/></g></svg>