<?xml version="1.0" encoding="UTF-8"?><svg id="Layer_2" xmlns="http://www.w3.org/2000/svg" viewBox="0 0 189.15 87.48"><defs><style>.cls-1{fill:#801a2a;}.cls-2{fill:#fff;}.cls-3{fill:#ff3454;}</style></defs><g id="illustrations"><rect class="cls-1" y="33.1" width="189.15" height="54.38" rx="13" ry="13"/><path class="cls-3" d="M175.91,54.38H13.23c-7.28,0-13.23-5.96-13.23-13.23L6.86,13.43C8.81,5.54,15.89,0,24.01,0h141.13c8.12,0,15.2,5.54,17.15,13.43l6.86,27.72c0,7.28-5.96,13.23-13.23,13.23Z"/><path class="cls-2" d="M32.37,44.06c-1.43-5-2.09-7.5-3.28-12.5h-4.17c-1.38,5-2.07,7.5-3.45,12.5h-6.88c3.39-11.25,6.79-22.49,10.18-33.74h10.12c3.34,0,5.8.8,7.42,2.4,1.62,1.6,2.07,4.25,1.29,7.93-.51,2.41-1.44,4.44-2.8,6.07-1.36,1.64-3.04,2.85-5.04,3.64,1.59,5.48,2.47,8.22,4.37,13.69h-7.74ZM26.47,25.92h3.8c1.94,0,3.52-.44,4.73-1.32,1.21-.88,2.01-2.2,2.43-3.95.4-1.69.22-2.89-.54-3.62-.76-.72-2.09-1.09-4.01-1.09h-3.65c-1.1,3.99-1.65,5.98-2.75,9.97Z"/><path class="cls-2" d="M51.41,10.32h17.77c-.27,2.38-.41,3.56-.68,5.94h-12.04c-.48,2.96-.73,4.43-1.21,7.39h10.55c-.29,2.38-.43,3.57-.72,5.94h-10.8c-.56,3.41-.84,5.12-1.39,8.53h13.62c-.27,2.38-.4,3.56-.67,5.94h-20.81c2.13-11.25,4.25-22.49,6.38-33.74Z"/><path class="cls-2" d="M75.39,10.32h9.59c3.46,0,6.18.83,8.22,2.51,2.04,1.67,3.09,4.4,3.09,8.19,0,3.72-1.1,6.53-3.37,8.42-2.27,1.9-5.23,2.84-8.78,2.84h-4.09c-.29,4.71-.44,7.07-.73,11.78h-6.89c.99-11.25,1.97-22.49,2.96-33.74ZM83.97,26.65c4.01,0,6.06-1.88,6.16-5.63.04-1.79-.42-3.08-1.38-3.88-.96-.79-2.43-1.19-4.44-1.19h-3.24c-.27,4.28-.4,6.42-.67,10.7h3.57Z"/><path class="cls-2" d="M101.43,10.32h6.03c.53,11.12.8,16.68,1.33,27.8h12.88c.23,2.38.34,3.56.57,5.94h-20.05c-.25-11.25-.5-22.49-.75-33.74Z"/><path class="cls-2" d="M141.58,35.64h-9.98c-.4,3.37-.62,5.05-1.07,8.42h-7.04c2.2-11.25,4.09-22.4,5.74-33.74h7.17c5.02,11.41,10.42,22.67,16.14,33.74h-7.29c-1.5-3.37-2.23-5.05-3.67-8.42ZM139.3,30.16c-.58-1.39-.86-2.08-1.43-3.46-.63-1.52-1.58-3.89-2.82-7.13-.59-1.53-.88-2.29-1.46-3.82h-.18c-.22,4.44-.5,8.1-.81,10.95-.14,1.39-.21,2.08-.36,3.46h7.06Z"/><path class="cls-2" d="M158.01,31.87c-5.85-8.62-8.61-12.93-13.83-21.55h6.47c1.85,3.22,2.8,4.84,4.72,8.06,1.7,2.98,2.57,4.46,4.33,7.44h.19c.05-.31.09-.64.13-.98.04-.34.08-.72.13-1.14.21-2.1.35-3.88.46-5.32.3-3.22.43-4.84.65-8.06h6.29c-.87,8.62-1.46,12.93-2.95,21.55,1.29,4.88,1.94,7.32,3.23,12.19h-6.88c-1.17-4.88-1.75-7.32-2.92-12.19Z"/></g></svg>