<?xml version="1.0" encoding="UTF-8"?><svg id="Layer_2" xmlns="http://www.w3.org/2000/svg" viewBox="0 0 189.15 87.48"><defs><style>.cls-1{fill:#801a2a;}.cls-2{fill:#fff;}.cls-3{fill:#ff3454;}</style></defs><g id="illustrations"><rect class="cls-1" y="33.1" width="189.15" height="54.38" rx="13" ry="13"/><path class="cls-3" d="M175.91,54.38H13.23c-7.28,0-13.23-5.96-13.23-13.23L6.86,13.43C8.81,5.54,15.89,0,24.01,0h141.13c8.12,0,15.2,5.54,17.15,13.43l6.86,27.72c0,7.28-5.96,13.23-13.23,13.23Z"/><path class="cls-2" d="M24.76,10.32h14.86c5.36,0,9.43.83,12.31,2.51,2.88,1.67,4.06,4.4,3.44,8.19-.61,3.72-2.78,6.53-6.62,8.42-3.84,1.9-8.57,2.84-14.08,2.84h-6.33c-1.24,4.71-1.85,7.07-3.09,11.78h-10.67c3.39-11.25,6.79-22.5,10.18-33.74ZM35.35,26.65c6.22,0,9.71-1.88,10.47-5.63.36-1.79-.14-3.08-1.49-3.87-1.35-.79-3.57-1.19-6.69-1.19h-5.02c-1.12,4.28-1.68,6.42-2.8,10.7h5.54Z"/><path class="cls-2" d="M65.1,10.32h9.34c-1.02,11.12-1.53,16.68-2.55,27.8h19.95c-.04,2.38-.06,3.57-.1,5.94h-31.07l4.43-33.74Z"/><path class="cls-2" d="M123.12,35.64h-15.47c-1.18,3.37-1.79,5.05-3.06,8.42h-10.9c5.38-11,10.24-22.26,14.48-33.74h11.11c5.96,11.54,12.46,22.79,19.42,33.74h-11.29c-1.76-3.37-2.62-5.05-4.29-8.42ZM120.49,30.16c-.66-1.39-.99-2.08-1.64-3.46-.72-1.52-1.8-3.89-3.19-7.13-.66-1.53-.99-2.29-1.63-3.82h-.28c-1.07,4.44-2.11,8.1-3.07,10.96-.45,1.39-.67,2.08-1.13,3.46h10.93Z"/><path class="cls-2" d="M149.21,31.87c-7.63-8.62-11.2-12.93-17.85-21.55h10.02c2.33,3.22,3.53,4.84,5.98,8.06,2.15,2.98,3.24,4.46,5.48,7.44h.29c.12-.31.24-.64.36-.98.11-.34.24-.72.39-1.14.67-2.1,1.19-3.88,1.59-5.32.99-3.22,1.46-4.84,2.34-8.06h9.74c-2.77,8.62-4.4,12.93-8.15,21.55,1.19,4.88,1.79,7.32,2.99,12.19h-10.67c-1-4.88-1.5-7.32-2.51-12.19Z"/></g></svg>