<?xml version="1.0" encoding="UTF-8"?><svg id="Layer_2" xmlns="http://www.w3.org/2000/svg" xmlns:xlink="http://www.w3.org/1999/xlink" viewBox="0 0 388.7 271.87"><defs><style>.cls-1{fill:#2cecd7;}.cls-2{fill:#3bd37e;}.cls-3{fill:#4e1bfc;}.cls-4{fill:#1bf3f8;}.cls-5{fill:#efdd00;}.cls-6{fill:#4326da;}.cls-7{fill:#e1d102;}.cls-8{fill:#5c25bd;}.cls-9{fill:#0fc2b7;}.cls-10{fill:#8686fe;}.cls-11{fill:#56fbe8;}.cls-12{fill:#60e1a3;}.cls-13{fill:#12f7da;}.cls-14{fill:#30ecd0;}.cls-15{fill:#0ec2b7;}.cls-16{fill:#7e6c6c;}.cls-17{fill:#9cec64;}.cls-18{fill:#574350;}.cls-19{fill:none;}.cls-20{fill:#4f1bfe;}.cls-21{fill:#8886fc;}.cls-22{fill:#343234;}.cls-23{fill:#6bb492;}.cls-24{fill:#d8a9b6;}.cls-25{fill:#3cd37e;}.cls-26{fill:#fbea01;}.cls-27{fill:#c5bdac;}.cls-28{fill:#858af7;}.cls-29{fill:#47f691;}.cls-30{fill:#6fcecd;}.cls-31{fill:#4be4b3;}.cls-32{fill:#4918ea;}.cls-33{fill:#d59875;}.cls-34{fill:#3f27e8;}.cls-35{fill:#352695;}.cls-36{fill:#44d181;}.cls-37{fill:#65d1cd;}.cls-38{fill:#a6705a;}.cls-39{fill:#37e4ea;}.cls-40{fill:#34eccc;}.cls-41{fill:#f9e935;}.cls-42{fill:#945e47;}.cls-43{fill:#3c2cc3;}.cls-44{fill:#252b56;}.cls-45{fill:#21f0d9;}.cls-46{fill:#f139ee;}.cls-47{fill:#ddd209;}.cls-48{fill:#32d4c8;}.cls-49{fill:#8d4e42;}.cls-50{fill:#3ceac4;}.cls-51{fill:#4e1bfd;}.cls-52{fill:#594350;}.cls-53{fill:#26eee2;}.cls-54{fill:#2eecd2;}.cls-55{clip-path:url(#clippath);}.cls-56{fill:#4eb788;}.cls-57{fill:#403801;}.cls-58{fill:#d2c748;}.cls-59{fill:#f5e90a;}.cls-60{fill:#4818e8;}.cls-61{fill:#edb596;}.cls-62{fill:#531af9;}</style><clipPath id="clippath"><path class="cls-19" d="M20,0h348.7c11.04,0,20,8.96,20,20v251.87H20C8.96,271.87,0,262.91,0,251.87V20C0,8.96,8.96,0,20,0Z"/></clipPath></defs><g id="illustrations"><g class="cls-55"><path class="cls-10" d="M78.73,234.64l5.2-.96c-2.12,21.94,11.76,22.69,29.51,19.81,7.31-1.19,8.6-3.23,9.49-10.45-.34-3.31.2-5.78,1.62-7.4,0-.5.05-.93.3-1.13.89-.71,22.28-.91,21.61.7l-1.98,1.42c1.96,8.61,1.96,17.29,0,25.9,2.65.32,2.53,8.21,0,8.97-9.81-.04-61.77,0-61.77,0-10.82-6.7-10.33-23.16-9.94-34.92l1.98-1.94c1.46-2.53,2.52-2.53,3.98,0Z"/><path class="cls-32" d="M124.56,225.68c.33,1.29-.4,7.97,0,7.97h34.37c6.1,0,8.92,6.53,12.52,8.4,2.41,1.25,5.6,1.12,8.44,2.52,7.09,3.49,12.92,19.19,9.42,26.94-14.75-.46-30.13.06-44.83,0v-8.97l1.06-1.91,24.07,2c2.06-.25,1.18-15.31.72-16.81-2.29-7.49-17.56-10.07-24-7.69l-1.85-1.48c-.1-.07.25-1.35-.19-1.73-.75-.66-17.41-.8-19.73.74l-1.34-.05c-.08-3.85-1.3-6.82-3.64-8.92-.45.96-1.14,1.67-2.08,2.15-1.33.67-17.27.04-18.84-2.15-1.54.88-2.63.92-1.99-1,6.06-3.14,16.88-4.08,22.91-1,1.4-.59,3.06-.26,4.98,1Z"/><path class="cls-29" d="M114.59,70.27l-1.52,1.88c-23.14.7-38.58,14.69-35.26,38.36l-2.07,1.6c2,.23,1.92,1.23,0,1.99,1.7.49,1.67.84-.09,1.05,2.66,1.36,2.13,6.73-.91,7.92l1.94,1.85c-.51,7.61-.56,15.2-.13,22.77l-1.81,1.28c.81.2,1.15.53,1,1,2.16,1.52,1.45,3.28-1,3.98.83,1.47,1.69,3.04,1.76,4.76.32,7.48,1.25,39.57-.44,43.67-.34.83-.81,1.61-1.32,2.37,2.47,5.04,2.44,9.9,0,14.94,2.88,4.62,2.81,10.25,0,14.94.19,10.48-1.34,18.37,3.11,28.27,1.37,3.05,4.12,5.29,4.86,8.59-1.99,0-3.99,0-5.98,0-12.46-4.56-20.27-17.77-25.85-29.28-2.42-.45-5.01-.38-7.78.23,1.11-2.52,2.02-5.13,2.74-7.81.21-.91.85-1.78,1-2.99-2.65-7.37-2.46-17.28-1.38-25.83-1.97.9-3.63,2.37-4.37,4.45l-2.23.45c-.49-.73-.82-1.73-1-2.99-6.88,2.5-13.93,4.14-21.15,4.93.45-3.4,2.52-6.7,6.21-9.92,23.79-43.18-13.78-112.92,27.88-150.94,2.07-1.88,7.66-6.46,9.98-7.46,7.95-8.89,47.1-13.04,54.19-5.86,2.58,2.61,1.89,25.5,1.48,30.41l-1.87,1.35Z"/><path class="cls-43" d="M44.86,235.64c.42,3.23-1.5,9.28-5.98,7.97-.33.87-.66.87-1,0l-2.52,2.25c-12.3,1.21-15.8,12.27-16.3,23.08,5.63-.96,11.52.23,16.83,2.56.91-1.93,2.08-1.93,2.99,0,.87.28.86-.38,0,0-7.96-.08-16.24.14-23.91,0,1.97-9.79,2.62-22.49,13.05-27.29,2.7-1.24,6.24-1.18,7.84-2.12,2.18-1.29,3.76-8.07,9-6.44Z"/><path class="cls-37" d="M45.86,234.64c-.02.1.93.76.61,1.98-.53,1.99-1.63,3.29-2.6,4.99,9.89-3.1,8.29,3.32,12.13,9.3,5.06,7.89,12.56,15.99,20.75,20.59h-4.98c-4.33-1.27-8.21-4.3-8.97-8.97l-3.43-.99c-4.18-5.32-7.57-10.99-10.17-17.04-6.68,3.06-10.11,2.76-10.31-.9,3.72-2,4.6-4.41,5.98-7.97.11-.28.78-.61,1-1Z"/><path class="cls-28" d="M71.76,271.5c-2.98,0-5.98.01-8.97,0-.87-.28-.86.38,0,0-3.03-.37-2.94-8.27,0-8.97,2.88,3.28,6.64,5.23,8.97,8.97Z"/><path class="cls-60" d="M62.79,271.5h0c-7.95-.03-15.96.08-23.91,0h0c7.32-3.04,16.65-3.19,23.91,0Z"/><path class="cls-61" d="M151.45,153.95c4.18-.32,11.19,5.61,5.98,8.97-.56,2.95-2.09,3.3-3.98,1-.74.2-2.67-.31-2.96.02-.37.42.16,5.79-.05,7.44-2.13,17.28-14.05,34.4-30.87,40.36-.06,3.15-6.93,4.83-8.47,1.99-.96,3.31-13.4,3.05-14.94,0-.26,3.33-7.66,1.09-7.47-1.99-1.51,1.56-2.69,1.1-3.56-1.39l-3.41-1.6c-2.9,1.76-6.48-.84-6.97-3.98-.02-16.45-.97-34.58,0-50.81l.31-1.22c24.87-.92,49.93-1.18,75.2-.77l1.2,1.99Z"/><path class="cls-25" d="M155.44,115.1c-3.16-.76-6.48-1.43-9.96-1.99l-2.07-1.7c-1.84-17.25-11.96-32.81-28.32-38.97l-.49-2.17c-.74-4.76,1.39-28.43-.98-30.4-3.73-3.09-24.05-3.07-29.41-2.48-4.1.45-19.36,5.24-23.41,6.98,28.64-25.43,74.92-13.86,89.84,21.24,5.01,11.78,4.3,21.72,4.81,34.04.21,5.08,2.14,9.92-.01,15.45Z"/><path class="cls-34" d="M156.44,117.09c4.22,2.8,3.68,4.43,3.98,8.97,2.38,4.63,4.1,14.77,0,17.93.66,2.77-1.59,6.89-4.98,7.97,1.42,1.35.81,1.92-1,1,.52,1.32-.48,1.65-2.99,1h-76.71c.09-1.43.15-2.76,1-3.98,24.36-.78,48.39-1.23,72.09-1.34,8.69-.48,15.77-29.52-5.15-30.42-19.91-.28-39.78-.51-59.61-.71l-2.34-1.39c-2.68-.32-2.7-2.95.06-2.89,18.67.76,37.51.75,56.51-.04,7.72-1.02,14.1.29,19.14,3.92Z"/><path class="cls-21" d="M119.58,211.73v10.96c1.62.95,1.95,1.63,0,1.99-7.36.09-15.28.98-22.91,1-.97,2.46-8.23,1.74-8.97-1-2.65-.32-2.53-1.23,0-1.99.63-2.74.78-5.53.47-8.38-2.23-.74-1.59-1.65.53-2.58,1.38.49,6.55,1.99,7.47,1.99h14.94c.43,0,7.88-1.78,8.47-1.99Z"/><path class="cls-2" d="M38.88,210.73c1.23-4.67,4.5-6.49,8.96-7.96-.02,2.91-.94,5.43-1.04,8.42-.23,7.2.85,13.7.05,20.47.19-1.47.06-1.97-1-2.99-5.03.87-10.1,1.75-15.21,2.66,3.78-6.5,6.52-13.36,8.23-20.59Z"/><path class="cls-6" d="M145.48,113.1c3.82.19,6.52-.5,9.96,1.99.77.56,1.06,1.01,1,1.99-1.93-1.28-6-2.8-8.4-3.06-15.33-1.6-31.64,1.12-46.89,1.13-5.62,0-10.85-1.32-16.98-1.06-1.92.08-4-1.03-3.44,1.99-.94,3.91-6.23,2.71-4.98-1.99.03-.66-.04-1.33,0-1.99,1.11-.45,2.23-.86,3.38-1.15s2.23-.52,3.34-.52c19.87-.1,40.02-.16,59.74,1.19l3.28,1.48Z"/><path class="cls-45" d="M159.42,151.96c2.11-2.04,4.06-.74,2.99,1.99,2.54,1.46,1.7,7.1,1,9.96-.99,4.22-11.48,8.61-9.96,0,1.32-.36,2.7-.63,3.98-1,4.46-3.54.11-6.49-3.41-8.71l.42-1.25c.25-.15.65-.69,1-1,2.26-2.04,3.59-2.04,3.98,0Z"/><path class="cls-12" d="M22.94,202.76c-1.93,3.5-4.75,5.32-4.98,8.96.69.68,10.39-1.76,12.18-2.26,2.8-.79,5.41-3.98,7.74-1.72-8.63,3.9-18.29,7-27.89,6.96l12.95-11.94Z"/><path class="cls-56" d="M38.88,210.73c.43,8.16-4.25,12.94-6.97,19.92,3.54.8,11.86-4,13.94-1.99l-20.92,4.97,5.97-5.47c4.32-5.95,6.83-12.96,6.98-20.42,1.24,1.2.92,1.46,1,2.99Z"/><path class="cls-24" d="M164.41,143.99c-.74.7-3.55,1.28-3.98,0,.67-3.82.29-13.65,0-17.93,5.78,4.24,3.64,11.88,3.98,17.93Z"/><path class="cls-48" d="M164.41,144.98c5.07.37,5.96,6.07,3.94,9.93-1.53.51-2.78-.68-3.94-.97.12,3.01.72,7.76-1,9.96.41-1.76-.03-8.52-1-9.96.58-1.93,1.47-1.95,1.99,0-2.79-.41-2.69-4.25,0-4.98-7.24.04-5.49-5.38,0-3.98Z"/><path class="cls-30" d="M164.41,143.99v1c-1.84-.13-4,.19-4,2.48,0,1.23,3.3-.41,4,1.5.31,1.93-3.97,2.66-3.66,1.57l-1.32,1.42c-1.01-.29-2.8.2-3.98,0,1.33-1.18,4.69-6.32,4.98-7.97h3.98Z"/><path class="cls-35" d="M124.56,225.68c-1.62.96-4.57-1-4.98-1v-1.99c1.68.83,4.47.97,4.98,2.99Z"/><path class="cls-3" d="M144.48,262.54v-25.9c.14.11,2.19-.95,3.46-1,11.46-.51,17.39-.44,24.23,9.68-.99,4.71,3.82,25.16-2.32,26.2l-25.37-8.97Z"/><path class="cls-3" d="M96.66,225.68l1.99,1c.76,3.4-2.35,4.72-9.33,3.98-.68,1.17-.34,16.16.4,17.57,1.21,2.28,25.02,2.29,27.32.6,2.5-1.83,3.42-16.66,1.54-20.02l.99-2.13c1.3-.13,2.68.07,3.99,0-.99,3.12.82,6.87.99,8.97.93,11.48.63,18.61-12.46,19.91-17.7,1.77-32.4,1.39-29.37-20.91-1.32-.04-2.66.04-3.99,0-1.1-2.35-.05-2.64,2.1-3.16-1.57-5.62,2.31-11.31,6.86-6.8,1.99-.02,5.76,1,8.97,1Z"/><path class="cls-44" d="M83.71,214.72c4.68-6.67,5.47.82,3.98,7.97v1.99c-.25,0-4.79.84-4.98,1.01-.43.38.33,5.9.06,7.4-.23,1.24-3.56-.06-4.05,1.56-1.33-.04-2.66.03-3.98,0-.09-4.97.04-9.98,0-14.94.51-3.21,6.6-7.6,8.97-4.98Z"/><path class="cls-20" d="M119.58,226.67c3.59,3.99,2.01,20.59-1.25,23.65-2.21,2.08-11.63,1.19-15.17,1.26-3.86.08-11.5,2-14.93-2.02-1.76-2.07-1.26-20.14-.53-20.9.29-.3,6.4.14,8.32-.19,1.42-.25,2.49-1.77,2.64-1.79,6.81-.91,13.64.74,20.92,0Z"/><path class="cls-61" d="M114.59,70.27c2.7.31,11.49,5.64,13.86,7.56,9.51,7.69,16.79,23.13,17.02,35.28-23.29-1.16-46.5.38-69.74-1,.84-14.8-1.89-23.4,11.63-33.7,6.56-5,19.1-9.06,27.23-8.14Z"/><path class="cls-11" d="M75.74,114.1c-.76,3.06,2.31,1.9,4.98,1.99,19.67.66,40.96-1.43,60.31-.04,16.04,1.16,18.17,7.95,16.28,23.34-.5,4.08-2.25,7.9-5.94,9.99-4.37,2.47-5.47.53-9.34.54-22.1.09-44.21.03-66.29.04-.73-.01-.87-.34-1-1l.91-2,52.83-.68-52.75-20.69-.99-2.53c.07-3.37.88-6.66,1-8.97Z"/><path class="cls-13" d="M74.75,123.06l64.76,25.4-64.76.5c-1.07-5.69-.13-19.31,0-25.9Z"/><path class="cls-36" d="M81.72,208.74c4.27,1.3,7.53,3.68,1.99,5.98-2.6,1.16-6.16,3.7-8.97,4.98-.04-4.97,0-9.97,0-14.94,2.3,1.31,4.84,2.41,6.97,3.98Z"/><path class="cls-51" d="M38.88,243.61c.13-.01,1,1.09,2.42,1.06,2.56-.04,7.62-3.08,9.41-1.94.43.27,3.23,7.43,4.3,9.15,2.32,3.72,4.89,7.37,7.78,10.65v8.97c-7.91-.18-15.96.01-23.91,0-1,0-1.99,0-2.99,0-3.82-1.77-3.7-13.44-3.25-17.78-.19-5.32,1.56-8.7,5.24-10.12.33-.02.67.03,1,0Z"/><path class="cls-60" d="M37.89,243.61c-5.1,6.83-3.17,19.86-1.99,27.89-6.3-.04-12.63.03-18.93,0,.92-14.77,4.3-26.92,20.92-27.89Z"/><path class="cls-62" d="M108.62,181.84c-4.34,5.57-6.46,4.43-10.96,0-.48-.77-2.92-1.21-1.99-3.98,2.9-.4,5.57.97,8.42,1.03,3.61.08,14.23-2.65,4.53,2.95Z"/><path class="cls-33" d="M108.61,166.89c-3.46-.17-7.02.26-10.47,0-1.08-.08-3.32.55-2.47-1.48,2.54-6.06,13.02-6.48,12.94,1.48Z"/><path class="cls-23" d="M88.69,211.73c-.47,3.45,1.17,8.26-1,10.96,0-2.98,0-5.98,0-8.96-.27-.3-3.34.71-3.98.99,3.09-2.97,1.01-3.77-1.99-5.98,2.94-.79,5.39,2.43,6.97,2.99Z"/><path class="cls-30" d="M154.44,152.95c2.94,2.78,10.48,7.86,2.99,9.96,2.97-6.11-2.12-6-5.98-8.97.59-1.36,2.52-.71,2.99-1Z"/><path class="cls-8" d="M108.62,181.84c-3.29,7.42-7.27,5.91-10.96,0,2.34-.26,3.46,3.04,5.48,3.04.31,0,4.47-2.45,5.48-3.04Z"/><path class="cls-27" d="M164.41,148.97c.31.84-.06,3.64,0,4.98-.56-.14-1.36.09-1.99,0-.1-.15-2.82-1.94-2.99-1.99-2.34-3.09,2.1-3.27,4.98-2.99Z"/><path class="cls-38" d="M301.9,212.72c.37,1.49.25,2.31,2.97,3.32,9.51-1.32,18.48-.77,26.91,1.66.77.02,1.95.22,1.98.71.58,10.8.45,31.53-.95,41.99l-2.02,1.12c-2.46,4.29-7.56,8.08-12.82,8.6.83.84-3.45.83-5.46,1.47l-1.64-.1-2.11-.98c.34-5.28.35-10.5.03-15.67-6.63-8.25-11.61-20.49-13.3-31.04-1.26-2.74-8.63-5.06-9.35-1.5,1.71,11.18-6.09,23.41-13.05,31.65-.6,5.32-.07,10.64,1.58,15.95l-1.65,1.59c-5.62-.06-11.33.24-16.94,0-4.3-1.93-8.71-3.55-13.24-4.86l-.71-2.11-2.01-.88-.95-44.71,1.97-1.24c9.2-2.64,18.87-3.07,28.99-1.28.22-.82.48-1.27.9-2.71v-1c.09-.78.34-1.95.89-1.99,3.19-.25,27.22-.51,28.55,0,.75.29,1.13,1.21,1.44,1.99Z"/><path class="cls-15" d="M331.79,217.71c.63-2.72,7.19-2.43,9.67-2.02,5.94.99,9.7,3.02,13.12,8.11,5.56-.14,11.43,3.07,14.97,7.3s15.16,39.44,14.72,39.83c-1.5,1.32-36.49.46-41.51.57-9.93.21-9.98-.07-19.92,0,.33-1.08,1.15-1.43,1.99-1.99,7.22-.94,4.58-1.31,11.99-1.13-.57-2.38-2.57-4.66-6.02-6.84l1-43.83Z"/><path class="cls-9" d="M273.01,271.5c-1.29-4.89-3.21-13.43-1.79-18.23.53-1.8,3.48-3.34,4.63-5.33,1.6-2.78,8.25-15.99,8.69-18.3.59-3.18-1.66-6.26.35-9.29,2.57-3.88,10.34-.91,12.1,2.02,1.27,2.12.54,5.1,1.4,7.32,2.24,5.78,6.45,15.2,9.01,20.87.58,1.27,2.76,1.98,3.28,3.7,1.31,4.37-.53,12.37.2,17.23-12.59.08-25.26.14-37.86,0Z"/><path class="cls-39" d="M242.13,264.53c2.12.07,13.88,3.68,13.95,6.97-2.15-.09-12.72.87-16.94,0-5.71-1.86,1-11.77,2.99-6.97Z"/><path class="cls-9" d="M241.13,217.71l1,46.82c-2.54-.09-4.95,4.55-2.99,6.97-12.12.24-33.59.61-47.82,0,5.01-11.7,7.77-40.48,21.35-44.89,2.33-.76,6.39-.62,7.33-1.15.32-.18,1.44-2.77,2.64-3.82,5.99-5.18,11.26-3.73,18.49-3.93Z"/><path class="cls-41" d="M301.9,201.77c.07,3.63.04,7.42,0,10.96h-30.88c-.85-3.58-.79-7.37,0-10.96.09-.78.34-1.95.89-1.99,3.57-.25,28.26-.35,29.33.66.34.32.52.8.66,1.33Z"/><path class="cls-4" d="M330.79,261.54c4.86-.98,8.82,5.6,10.38,10.01-8.79-.31-19.24.22-28.31-.05,3.22-2.14,14.44-9.26,17.93-9.96Z"/><path class="cls-38" d="M227.18,103.14c.7-1.76,3.68-1.8,3.76.58-1,11.64.83,24.99,15,26.05,26.23,1.97,56.23,1.01,82.69-.15,4.6-.2,12.99-8.27,13.04-13.4l.31-12.14c.21-1.43,1.37-1.56,2.75-.95,9.77.17,16.02,11.21,14.07,20.13-2.63,12.05-12.27,14.03-22.79,14.42l-1.49,22.8c-.03,1.92-.74,3.03-2.74,3.43,2.01.59,1.35,1.92-1.99,3.98-3.76,8.59-10.94,16.47-18.61,21.74-6,4.12-9.47,1.93-9.29,12.13h-30.88c-.08-2.59.28-5.25-.16-7.81-13.02-4.69-23.98-14.98-28.73-28.05-3.23-1.49-3.89-2.81-1.99-3.98-3.1-.04-3.85-6.45-1-7.47-.77-.1-1.92-.33-1.99-.89-.38-3.18-.38-12.4,0-15.62l1.99-1.43c-21.65,5.35-30.98-22.89-11.95-33.37Z"/><path class="cls-22" d="M341.77,94.19c-.47-1.61-107,.07-108.61-.81v-26.3l-1-.3c2.2-6.29,4.9-12.57,8.07-18.84h1.36c7.11-14.91,26.05-23.68,42.59-23.5l2.76-2c1.36,2.95,10.98,3.44,12.95,1-1.61-2.38-9.6-2.89-12.46-2.97-28.6-.84-53.8,19.77-57.22,48.36-1.27,10.57,1.03,21.76-.05,32.32-1.4,16.08.4,29.58,18.39,30.93,25.74,1.92,54.29-1.16,80.3-.48,6.89-1.93,13.8-7.7,14.8-15.09l-1.88-22.31Z"/><path class="cls-7" d="M292.93,39.38l2.06-.91c4.67,5.56,8.57,6.33,11.72,2.31l2.43.23c1.84,5.22,6.2,9.42,9.91,2.86,2.25-.93,3.64,3.36,3.95,5.19,1.09.77,3.8-1.85,4.34-2.91l2.45.19c3.57,5.55,4.94,8.33,5.98,14.94.84,1.98,1.18,4.04,1.35,6.17.46,5.76,1.21,22.23.15,27.03-.13.58-10.3.75-10.46-3.31l-1.96-2c-.35-19.98-15.59-38.29-35.95-39.77l-1.94-2.06c-2.85-.06-2.72-2.32,0-2.99.39-2.31,3.8-4.07,5.98-4.98Z"/><path class="cls-47" d="M299.91,23.44c9.59,2.34,20.83,11.27,26.9,18.93.12,4.09-5.55,4.12-7.53,1.15.69-4.39-3.59-8.01-7.41-5.13,1.33,1.46.75,2.02-1,1-1.46,5.08-4.43-1.4-5.48-4.46-2.8-2.86-5.41-1.07-7.87,1.13-2.59,1.34-4.13,1.46-4.58-1.66-2.58-1.92-5.32-2.94-8.21-3.07l-1.75-1.91c-.87-1.62-.12-2.69,2.23-3.21-.52-2.11.06-3.37,1.75-3.76,3.79.06,9.37.12,12.95,1Z"/><path class="cls-31" d="M292.93,34.4c4.33,2.3,4.84-3.82,10.22-2.84,4.8.88,4.69,4.52,6.03,7.55.21.49,1.64.19,1.68.27l2.08,1.18c-.31,8.97,7.86-.78.09-.34l-1.18-1.84c2.64-3.73,5.02-2.06,7.44,1.05s.72,5.97,7.51,2.94c1.02,1.28,2.1,2.61,2.99,3.98-1.78,1.94-3.24,4.78-6.31,4.71-3.98-.09-1.72-3.67-4.15-5.69-6.06,7.67-9.16-2.96-11.95-3.02-.41,0-1.06,3.97-6.93,3.02l-7.52-5.99c-2.66-.99-2.66-3.99,0-4.98Z"/><path class="cls-58" d="M337.76,66.28c.92,9.66.92,19.29,0,28.89-2.45-.4-6.25.02-8.97,0-2.88-.45-3.55-1.45-1.99-2.99-.87-.28-.86-.62,0-1,3.03,3.09,5.67,3.46,9.97,2.99-.26-10.93.7-22.06-1-32.88,1.13,1.38,1.52,3.33,1.99,4.98Z"/><path class="cls-57" d="M338.76,68.27c1.15,8.43-.84,19.18-.01,27.89-.8.26-.89-.98-.98-1v-28.89c.1.34.83.81,1,1.99Z"/><path class="cls-5" d="M227.18,103.14c1.89,2.52-3.31,4.36-4.98,6.48-6.79,8.64-2.75,23.3,8.52,25.34,2.87.52,6.44-1.08,8.41,1.55v17.93c0,.38.88,6.96,1,7.47-28.93,22.3-66.62-11.56-48.01-43.53,7.69-13.21,20.72-15.95,35.06-15.25Z"/><path class="cls-5" d="M331.79,163.91c2.15-7.91,1.3-19.49,2.1-27.79,7.56-2,13.55.65,19.35-6.05,8.3-9.6,2.42-22.68-8.5-26.93,61.18-2.8,42.16,87.48-12.95,60.77Z"/><path class="cls-42" d="M278.99,148.96c-.18-3.12,5.04-6.06,7.52-5.92,1.25.07,5.24,3.62,5.42,4.45.99,4.42-10.8,1.62-12.94,1.47Z"/><path class="cls-49" d="M276,162.92c.37-.34,5.7,1.81,7.46,1.99,4.31.44,6.12-.63,9.7-1.28,7.27-1.31,1.4,3.21-2.96,4.02-2.44.45-17.83-1.39-14.2-4.74Z"/><path class="cls-38" d="M286.96,47.35c22.88.17,40.75,21.54,39.85,43.83v1l-.8,1.15c-11.58-1.93-22.73-2.11-34.07,1.84-4.12-.12-7.06.66-10.96-1-11.93-3.58-21.82-2.64-33.87,0-1.58-.39-1.82-.98-.55-1.82-.44-9.72.53-18.51,6.49-26.54-1.11-1.47-.76-1.97,1.04-1.53,6.45-9.6,16.49-15.05,27.64-17.36.78-2.05,4.32-1.57,5.23.42Z"/><path class="cls-46" d="M332.78,106.13c-.25,5.69,1.96,13.7-5.54,14.88-25.64-1.65-54.42,2.4-79.68.11-9.31-.84-8.53-7.2-8.42-14.99h93.64Z"/><path class="cls-59" d="M286.96,22.45c.75,7.69-.22,4.58-3.98,6.97l.27,2.24c-4.83,3.71-3.7,10.36,2.72,10.74l1,1.96v2.99c-11.5-.08-26.2,7.7-32.88,16.94l-.66-2.53c5.22-8.66,10.71-11.18,19.5-14.49,1.84-.69,5.17-2.19,2.08-2.9l-1.17-2.01c2.72-5.15.72-8.87-5.31-8.14l-1.49-1.8c-2.1,1.38-3.62,3.44-4.57,6.19l-1.41-.22c-4.75-2.93-9.19-.26-8.89,5.3l-6.77,2.19c.31,2.23-.11,3.72-1.27,4.47l-2.9,1.16-4.24,11.24c-.57,1.15-1.66.67-2.82.05.78.09,1.96.35,1.99.9.56,8.44.55,20.57,0,29.02l-1.99,1.46c.55-3.23,10.61-3.93,11.95-1-3.25-1.46-3.12-13.69,0-15.44-.49-.1-.94-.24-1.27-.53-1.18-1.02,6.02-14.53,9.24-12.92-5.5,7.61-7.76,20.65-6.97,29.89.87.28.86.62,0,1-5.07.14-10.54-1.07-14.94,1.99v-30.38c0-5.63,7.29-20.21,10.98-24.88,11.3-14.3,25.91-19.73,43.81-19.45Z"/><path class="cls-18" d="M326.81,92.18c.35.15,1.41,2.43,1.99,2.99-12.25-.08-24.62.34-36.86,0,5.48-5.44,18.04-5.72,25.41-4.99,1.05.1,8.91,1.76,9.46,2Z"/><path class="cls-52" d="M280.98,94.17c-3.62,1.67-7.99.95-11.95,1-3.23-.86-6.72-.85-9.96,0-3.97.01-7.99-.11-11.95,0v-1c8.58-4.48,17.5-5.96,26.96-3.55,3.15.8,4.83,2.66,6.92,3.55Z"/><path class="cls-16" d="M269.03,95.17c-3.31.04-6.65-.01-9.96,0,2.21-1.7,7.95-1.65,9.96,0Z"/><path class="cls-50" d="M292.93,34.4c.18,1.01.18,3.97,0,4.98-.55,3.07-2.92,4.75-5.98,4.98-8.92.67-12.18-9.72-3.98-14.94,4.3-.33,9.08.13,9.96,4.98Z"/><path class="cls-14" d="M311.86,38.39c10.99-1.97,5.9,11.68.42,7.08-2.32-1.95-.93-5.19-1.42-6.09.33-.32.73-.62,1-1Z"/><path class="cls-50" d="M299.61,33.59c4.46-1.38,9.91,2.15,7.78,6.77-5.07,10.96-17.26-3.84-7.78-6.77Z"/><path class="cls-26" d="M275,44.36c1.94-.34,1.61-3.49,5.71-.29,3.75,2.93-2.6,2.69-5.67,3.82-11.02,4.07-14.57,7.11-20.96,16.39-1.5,2.18-7.97,11.4-7.97,13.45v15.44l-11.95,1v-31.38c0-.19,1.23-.83,1.42-1.57,1.27-4.85,3.25-8.25,4.56-12.88,1.87-.43,2.6,1.45,3.97,1.99.88-1.24,2.51-1.65,4.89-1.22,1.84-3.45,3.38-4.39,4.6-2.83,4.83,2.5,8.46.79,9.37-4.64,3.72,3.61,7.39,4.51,11.02,2.72.25-.88.58-.86,1,0Z"/><path class="cls-40" d="M275,44.36c-.32.06-.67-.04-1,0-8.7,3.72-16.22-5.87-6.97-11.95,9.12-1.58,12.53,4.28,7.97,11.95Z"/><path class="cls-17" d="M267.03,32.41c-5.95,7.16-2.31,13.21,6.97,11.95-2.88,5.35-9.89-1.73-10.93-.99-.26.18-.95,4.02-3.74,4.81s-4.96-1.14-6.6-.91c-1.39.19-.58,6.25-8.61,3.07-3.5-8.53,4.27-6.59,6.8-8.14,1.05-.64,3.53-11.09,10.13-3.81-.24,2-1.22,1.91-1.99,0-.12,2.91-3.19,2.27-4.98,1-3.65,8.69,10.09,9.51,6.03-.29l.94-.71c.08-.3,3.2-4.88,3.43-5.08.79-.72,1.59-.73,2.55-.89Z"/><path class="cls-1" d="M282.67,31.62c12.22-3.66,12.93,12.82,1.83,10.74-5.25-.98-6.42-9.36-1.83-10.74Z"/><path class="cls-54" d="M259.06,38.39c7.03,8.92-8.25,11.36-4.98,1,1.66-1.69,3.01-.81,4.98-1Z"/><path class="cls-53" d="M246.72,44.45c5.11-1.66,5.7,4.73,1.72,5.75-3.98,1.02-4.5-4.85-1.72-5.75Z"/><path class="cls-40" d="M261.06,38.39c-.41,1.55,3.49,6.93-2.54,7.96-5.54.95-7.52-3.82-4.44-6.97-.64,5.27.7,6.62,5.98,5.98l-1-6.98c.65-.06,1.34.04,1.99,0Z"/></g></g></svg>