<?xml version="1.0" encoding="UTF-8"?><svg id="Layer_2" xmlns="http://www.w3.org/2000/svg" viewBox="0 0 323.13 205.93"><defs><style>.cls-1{fill:#88d4b6;}.cls-2{fill:#f7e807;}.cls-3{fill:#461ae5;}.cls-4{fill:#584453;}.cls-5{fill:#efdd00;}.cls-6{fill:#cac044;}.cls-7{fill:#2bedd6;}.cls-8{fill:#4aedb7;}.cls-9{fill:#fcec33;}.cls-10{fill:#945d46;}.cls-11{fill:#56fbe7;}.cls-12{fill:#8686fe;}.cls-13{fill:#41d081;}.cls-14{fill:#39ebc2;}.cls-15{fill:#4f1bfd;}.cls-16{fill:#0ec2b7;}.cls-17{fill:#15f3f9;}.cls-18{fill:#5eafb3;}.cls-19{fill:#21ecd4;}.cls-20{fill:#3bd37d;}.cls-21{fill:#8686fd;}.cls-22{fill:#2aecd8;}.cls-23{fill:#8c4f42;}.cls-24{fill:#4f1bfe;}.cls-25{fill:#94de5d;}.cls-26{fill:#34ead9;}.cls-27{fill:#48d189;}.cls-28{fill:#10f9db;}.cls-29{fill:#2aedda;}.cls-30{fill:#3cd37e;}.cls-31{fill:#47f691;}.cls-32{fill:#b0c6b2;}.cls-33{fill:#faea02;}.cls-34{fill:#4e1bfe;}.cls-35{fill:#12f6fd;}.cls-36{fill:#29edd9;}.cls-37{fill:#ded208;}.cls-38{fill:#a74740;}.cls-39{fill:#d69a75;}.cls-40{fill:#5930af;}.cls-41{fill:#a6705a;}.cls-42{fill:#fcf6fa;}.cls-43{fill:#564351;}.cls-44{fill:#6fe283;}.cls-45{fill:#343333;}.cls-46{fill:#f139ee;}.cls-47{fill:#4818e9;}.cls-48{fill:#1ff0e9;}.cls-49{fill:#ceaeb6;}.cls-50{fill:#3f7d69;}.cls-51{fill:#e2d101;}.cls-52{fill:#edb596;}.cls-53{fill:#49e6b8;}.cls-54{fill:#4525e6;}.cls-55{fill:#803596;}</style></defs><g id="illustrations"><path class="cls-47" d="M27.94,64.11c1.68-.28,2.07,1.5,1.98,2.9l-3.92,57.6,27.05,17.07-.04,1.49.65,1.32c-2.49,3.37-5.92,8.66-1.75,12.14,1.55,1.3,17.09,11.4,18.16,11.3l5.79-9.22,1.58-.11c.73-1.84,5.14.02,4.5,1.93,1.37.04,4.13,1.9,4.5,3.21,3.48.13,4.33,1.2,2.57,3.21,1.03.5.97,1.31-.16,2.44,4.19.35,6.81,3.54,7.87,9.55,1.79,2.1,2.64,4.1,2.57,6.01.68,1.07.68,1.72,0,1.93l-1.88-.31c-3-4.1-5.47-8.57-6.98-13.36-1.66-.16-3.41-.1-4.98.49-2.46.94-2.32,16.7-1.54,19.4l-1.29,11.77h10.88c.56.18.55-.25,0,0-3.67.79-9.68,1.9-12.86,0h-1.39c.81-4.72,1.1-12.1.86-16.49-19.39-10.53-39.36-22.74-57.32-36.22-1.72,1.18-2.06.45-2.57-1.29-2.92-1.85-5.76-3.9-8.67-5.79-3.29-2.13-9.71-4.6-10.58-9.35-.55-2.97-.2-10.13-.06-13.49.82-20.06,3.39-40.08,4.53-60.07,0-.3.01-.6.12-.85.44-1.01,20.44.97,21.73,1.43l.64,1.35Z"/><path class="cls-52" d="M29.86,48.68c1.55,3.21,1.09,8.89.58,12.64-.21,1.55-.71,3.31-2.5,2.78l-22.5-1.93c.05-.85-.04-1.72,0-2.57.19-4.1.68-8.09.64-12.21,2.09-1.41,4.8-1.85,8.12-1.31l14.68,1.39.98,1.2Z"/><path class="cls-41" d="M249.69,152.17c1.25,1.38,1.72,3.32,1.4,5.83l17.64.57.89,1.31c.67.23,1.29.55,1.38,1.25,5.15-.21,10.3.14,15.43.5l2.47,1.46c.98,2.13-.87,3.36-5.55,3.68.41,4.31-2.04,6.68-7.35,7.12-1.81,1.59-2.33,3.91-1.57,6.96l2.91,14.44c.24.95-.38,1.5-1.3,1.86.1.49.21,1.19-.13,1.42-3.43,2.22-8.75,5.42-12.72,6.3.82.74.3-.24-.64,0-2.99-.02-6.01.03-9,0-3.96-2.29-8.26-4.53-12.61-6.26l-.24-1.46c-1.77-.68-2.8-1.57-3.09-2.67l3.71-13.46c1.21-6.48,1.47-9.12-6.22-10.34-1.73-.97-2.57-2.91-2.52-5.83-3.73-1.08-4.67-2.31-2.81-3.7.65-.65,1.41-1.08,2.3-1.27l15.72.68.1-7.78c.14-.93.89-1.02,1.79-.63Z"/><path class="cls-16" d="M288.9,163.1c.4-1.71,4.41-1.43,5.98-1.18,4.56.72,7.27,2.47,9.82,6.43,8.34,2.43,10.03,6.52,12.71,14.33,1.69,6.4,3.6,12.72,5.72,18.95l-.81,3.25c-.06.04.26-.18-.43,0-.81.22-7.13-.08-8.57,0-16.25.89-34.34.09-50.78,0-.03-.63.18.38.64,0l4.92-2.51,41.65,2.51-5-11.03c-9.62,8.64-15.96,11.15-27.96,4.63l-.75-1.31c.74-5.37-6.36-20.49-1.25-24.07,1.51-1.06,6.39-1.7,6.76-2.24.81-1.18-.47-3.97,1.17-5.25s5.17.53,6.17-2.51Z"/><path class="cls-35" d="M240.69,197.16c3.31,1.15,9.39,5.79,12.29,7.71,1.04.69,1.77-1.73.57,0-6.42-.05-14.41.64-20.57,0-3.24-.34-5.21.35-7.71,0-6.29-1.03-12.74-.42-19.34,0-7.69,1.49,3.08-16.11,3.91-16.37l1.8.29c7.21,5.82,13.07,7.95,22.51,6.25,2.77-.31,4.48.31,6.55,2.12Z"/><path class="cls-15" d="M13.79,5.62l1.36,1.07c.1,3.49-.36-.87,1.21-4.61,1-3.29,5.82-2.52,6.49,1.18.54,4.87,1.72,2.05,2.77-.99,1.07-2.54,6.02-1.25,6.19.68.38,4.45-1.66,15.38-2.59,20.29-.07.37.2,4.39.2,4.39.35,6.49,2.35,3.9,3.32-1.1.32-.63.72-3.17,2.25-4.2,1.48-3.43,6.31-5.03,6.43,0,.02.98-.41,2.79-.64,3.86,0,0-1.44,12.7-2.15,18.57-1.15,2.69-6.46,5.85-8.77,3.93-2.04.45-12.64-1.14-15.72-1.31-2.67-.15-5.39.16-8.06.03-.09-9.97-.75-19.72-3.86-28.92C.75,16.18-.62,12.76.3,10.12c1.3-2.68,4.34-.94,6.21.24l.67-.34c-2.73-6.72,3.47-13.37,6.62-4.4Z"/><path class="cls-16" d="M229.77,161.17c-.04,2.61,2.7,1.35,3.82,2.93,1.01,1.43.29,3.73.98,4.81.91,1.43,7.47.4,8.58,5.59.87,4.06-2.98,16.12-4.41,20.45l1.95,2.22c-5.95-2.07-12.65.48-18.82-.79-2.94-.61-8.78-5.43-11.71-6.92-1.01,2.85-5.12,7.1-5.85,9.6-.22.77-.5,1.13.36,1.67,2.83,1.76,16.6-1.43,20.59,1.59-1.78-.25-7.06,2.57-8.68,2.57h-13.5c-.22,0-1.08.06-1.9,0-2.22-.17-7.33-2.85-6.77-5.14,3.71-9.61,7.09-19.54,11.31-28.86,6.16-3.83,9.62-8.64,17.34-9.65,2.09-.28,4.54-.03,6.7-.05Z"/><path class="cls-12" d="M112.78,170.17c2.63-.49,2.66.46,2.68,2.96-2.8,9.86,3.06,10.61,10.88,11.36,9.92.96,13.01.96,14-10.52l1.37-.6c3.25.3,6.8.3,10.02.61.84.08,1.42.66,1.55.67l.82,1.22c.04,6.36-.11,14.27-2.74,19.99.97,1.78.97,8.64,0,9-6.75-.06-44.58.14-57.85,0h.06c3.33-3.52,4.77-11.05,4.31-17l1.42-1c.09-.6-.06-1.31,0-1.93l1.68.03c3.06,3.69,6.53,7.15,10.78,9.45-6.37-6.3-6-14.97-4.85-23.22l1.39-1.05c.53-1.87,3.84-1.98,4.5,0Z"/><path class="cls-47" d="M169.34,180.45c2.88,2,7.03,2.28,9.23,5.3,2.34,3.21,4.43,15.13,3.63,19.12-10.2-.46-20.69.09-30.85,0,.03-1.07-.04-7.93,0-9,1.89,1.51,16.31,2.14,17.33,1.39,1.91-1.43.65-12.97-.21-15.51l.88-1.3Z"/><path class="cls-31" d="M150.06,46.76c.3.24.59.49.82.79.54.71-1.12,15.62-1.56,17.63l-1.18,1.5-1.29.97c-13.36-2.59-27.01,6.04-26.09,20.38l-.91,1.15c1.37,1.18,1.11,1.78-.64,1.93,1.61,1.68,1.36,3.93-.64,5.14,1.27,5.23.11,12.04-2.57,16.71,1.73.78,1.77,1.8,0,2.57.45,11.15-1.1,22.79-4.5,33.42,1.67,2.57.33,8.28-1.93,10.28,1.53,3.33.93,7.98-1.29,10.93-.7,7.93-2.22,14.42,2.69,21.42.59.84,5.12,4.93,4.38,5.58-6.23-1.36-12.17-7.3-16.07-12.21-1.28-1.62-2.6-3.27-3.56-5.11-3.09-5.94-1.23-10.98-9.93-8.39l3.21-4.5c-.09-2.03.55-3.1,1.93-3.21l-1.11-.84,2.41-15.66c-2.11,1.1-3.83,1.24-5.16.43-4.73,1.44-9.51,2.24-14.47,2.56-.73.05-5.11.34-3.53-1.27.19-.19,3.56-1.56,4.8-2.6,6.95-5.79,10.29-11.33,11.83-20.31,4.44-25.87-.1-74.17,33.5-81.87,9.1-3.55,18.89-2.91,28.11-.23,1.36.4,3.14,1.2,2.74,2.8Z"/><path class="cls-34" d="M93.5,204.88c-3.6.57-8.45-.42-12.21,0-.1-3.11,1.14-8.16,1.31-11.22.18-3.29-.72-6.24-.69-8.99.02-1.96,1.04-9.49,1.79-11.12.88-1.9,6.84-1.96,7.79-1.35.23.15,1.26,4,1.77,4.98,1.64,3.21,3.75,6.93,6.04,9.71-.71,4.56.09,17.06-5.78,18Z"/><path class="cls-48" d="M55.57,145.74l.3,1.45c-1.11,1.2-3.07,5.23-2.35,6.61.43.82,15.19,9.94,15.95,9.4l3.24-6.54h1.5c.99.63,2.21,1.3,3.21,1.93l-6.79,10.97c-.91.06-13.85-8.17-15.66-9.41-1.26-.86-3.72-2.15-4.57-3.14-4.05-4.72-.28-9.74,2.59-13.83,1.28.45,2.54,1.04,2.57,2.57Z"/><path class="cls-18" d="M88.36,163.74c-.56.11-1.32-.08-1.93,0-1.38-.96-3.22-2.42-4.5-3.21.17-.24.5-.42.64-.64,1.46-1.46,6.38,1.92,5.78,3.86Z"/><path class="cls-17" d="M276.04,197.16c2.16-.25,6.34,2.54,8.71,3.18,10.3,2.76,12.96-3.92,20.52-8.32l6.76,12.86h-48.85c.9-.74,12.14-7.63,12.86-7.71Z"/><path class="cls-9" d="M269.62,152.81c-.07,2.26-.13,4.83,0,7.07l-19.93-.64c-.06-2.35.08-4.73,0-7.07l.35-1.42c6.21.2,12.43.52,18.65.94l.92,1.13Z"/><path class="cls-41" d="M297.9,87.89c10.36,3.73,11.85,17.39.88,21.62-2.33.9-7.56,2.3-8.6-.41.49.07,1.25.21,1.29.56.27,2.4.26,8.65,0,11.08l-1.29.9c1.99.56,1.35,5.79-.64,6.11-.01.06-.75.27-.9.71-3.04,8.79-10.17,15.77-18.73,19.19-.65.97-.25,3.79-.29,5.17-5.07,1.25-15.7-2.04-19.93-.64-.25-7.31-1.54-4.46-6.63-7.83-3.93-2.6-7.28-6.19-9.7-10.22-1.32-2.19-1.58-4.87-3.59-6.38l-1.04-.94c-.15-5.04-.6-10.02-1.37-14.96-13.25.58-18.54-16.35-5.94-22.02.54-.38,1.09-.43,1.65-.09-.69,12.94,3.38,16.66,15.59,17.09,14.58.51,32.04.14,46.54-1.18,9.55-.87,10.28-9.47,9.59-17.28.13-1.24,1.17-1.4,3.12-.47Z"/><path class="cls-52" d="M164.85,121.96c1.45.68,5.71,3.4,3.21,5.14-1.17,1.07-2.88,1.5-5.14,1.29-.46,13.24-10.84,25.69-23.78,28.28l-1.07,1.49c-6.07.8-12.36.33-18.14-1.73l-.72-1.69c-2.09,1.53-7.51-3.3-7.71-5.78,1.43-11.06,2.94-22.38,4.5-33.42l.75-1.18c15.8,2.3,31.63,4.38,47.5,6.23l.6,1.38Z"/><path class="cls-45" d="M229.47,93.9c1.25.84-6.48-3.97-7.84-3.48l.17-1.04c.43-2.71,2.65-4.75,5.39-5.03,2.15-.22,4.39-.7,5.77-1.14,0,0,16.57-.66,23.95.4,0,0,21.97-2.53,27.58-1.04.07.02,3.94.62,5.68.41,2.23-.27,4.33,1.09,4.92,3.26l.7,2.57"/><path class="cls-45" d="M295.97,87.89c.87,11.41-.54,18.4-13.15,19.31-10.37.75-21.73.49-32.13.65-14.92.22-30.69,3.17-28.69-17.67l-.59-.36"/><path class="cls-5" d="M221.41,89.82c-.59,2.42-3.08,2.64-4.35,4.97-4.86,8.95,2.71,17.09,12.06,15.59-1.13,3.95,2,14.38.64,17.36-.6,1.31-4.8,3.25-6.29,3.67-23.42,6.65-38.68-22.31-18.14-39.03,5.32-2.45,10.22-3,16.07-2.57Z"/><path class="cls-5" d="M314.61,125.82c-8.16,5.22-16.11,6.53-25.07,1.93.07-.31.64-5.79.64-6.11v-12.53c13.4,2.17,21.25-11.88,8.45-19.73-.95-.58-2.08.47-.74-1.48,22.21-.66,31.76,22.14,16.71,37.92Z"/><path class="cls-30" d="M157.13,48.04c12.23,9.08,15.5,20.78,14.78,35.67-.18,3.81-1.73,9.6-1.28,13.18-1.52,1.43-5.83.02-6.43-1.93l-1.28-1.03c-.59-9.83-4.93-21.15-14.22-25.68l-.56-1.57c-.66-6.52,1.66-13.36,1.93-19.93-1.13-3.52,3.78-.28,5.39.78l1.69.51Z"/><path class="cls-24" d="M117.92,165.03l1.24-1.22c6.1.4,12.22,1,18.29,1.72l1.04,1.42c.46.06,1.55,1,2.52.68-.57,1.74.73,4.65.69,5.74-.02.81-1.28,7.55-1.58,8.38-.41,1.14-2.27,3.21-3.32,3.75-2.38,1.22-9.19.45-12.13.08-4.86-.62-10.96-1.09-11.21-7.44-.07-1.83,2.06-7.42-.69-7.99-.63-3.58,2.01-8.84,5.14-5.14Z"/><path class="cls-15" d="M169.34,180.45c1.47,3.29,1.94,12.23,1.27,15.73-.81,4.25-5.63,2.32-8.03,2.27-3.66-.08-10,1.37-11.24-2.58.24-7.02,1.76-14.17,1.93-21.21,5.92.63,13.09-.88,16.07,5.78Z"/><path class="cls-51" d="M258.69,51.26c1.77-1.05,3.48-2.16,5.13-3.31,2.07,4.62,5.86,3.93,9.01,1.17l.64,1.5c1.62,2.59,4.31,2.72,6.66.86.51,4.23,4.18,4.5,5.63.51l1.21,1.2c1.66,2.77,2.65,4.7,3.86,7.71.6,2.14,1.64,4.17,1.46,5.88.25,2.3.37,14.81-.62,15.86-.86.91-4.08,2.41-4.94,1.44-.15-.22-.84-.13-1.16-.37-.57-.12-1.07-1.93-.53-2.23l-1.29-1.37c-.27-14.51-11.93-26.73-26.76-25.75l-1.51-1.16c-.29-.61-.28-1.17.12-1.67,1.87.74,2.4.45,3.09-.26Z"/><path class="cls-54" d="M164.2,94.96c2.41.45,4.17,1.12,6.43,1.93.44,3.51,3.08,3.91,2.57,9,.4,1,.43,2.06.42,3.13-.02,2.03-.51,7.49-2.35,7.79,1.36,1.04.93,1.69-1.29,1.93.89,1.61.32,2.18-1.29,1.29.44,1.96-1.23,2.75-2.57,1.29.42,1.44-.23,1.7-1.29.64l-48.85-6.43c.12-.81-.12-1.76,0-2.57.13-.5.42-1.23.77-1.19,11.21,1.2,24.51,2.91,35.53,5.08,2.41-.1,3.8.53,4.19,1.9,2.41-.55,4.91-.84,7.49-.89,5.28-1.06,8.4-18.23.53-18.89-14.36-2.34-28.88-4.57-43.59-6.67l-1.71-1.18c.14-.94.6-1.67.64-1.93.7-.23,1.4-.43,2.12-.55s1.39-.21,2.06-.14c12.15,1.28,24.29,2.83,36.39,4.52,1.39.4,2.65,1.06,3.78,1.96Z"/><path class="cls-3" d="M74.22,156.67c-.79,1.06-3.57,7.4-3.93,7.63-.72.45-2.17-.09-2.96-.42-1.34-.57-14.39-8.51-14.83-9.27-1.27-2.18,1.21-7.55,3.08-8.87.54-.38,1.24-.62,1.89-.33,4.24,3.19,8.96,5.66,13.46,8.44,1.16.72,2.14,2.1,3.29,2.82Z"/><path class="cls-21" d="M139.13,156.67l-.64,10.28c-5.73-.73-14.99-1.63-20.57-1.93-1.48-1.64-1.42-7.29.64-8.36-1.4-1.13-1.09-1.76.64-1.93,5.5,2.49,14.03,3.11,19.93,1.93Z"/><path class="cls-2" d="M252.9,37.11c7.25-2.25,11,3.36,2.57,4.5-1.44,1.63-2.1,3.49-1.97,5.58l-1.88.2c-5.08-9.79-12.33,6.15-1.17,2.39l1.17.84c1.33,3.7-4.61,3.84-7.28,2.65-1.49,2.14-3.96,3.07-6.43,2.1-1.85,2.85-6.37,3.65-8.38.65-3.62,3.12-4.45,24.03-2.66,26.26.31.38,5.95.41,4.96-2.13-1.98-3.37,2.4-17.01,5.44-17.6.53-.1,1.03.04,1.5.27l.35,1.99c-3.05,5.37-4.88,11.31-4.36,17.53l-1.13,1.69c-3.38.15-6.34.22-9.64,1.29v-20.89c0-3.04,3.24-8.09,3.86-11.25,5.97-8.18,14.5-15.39,25.07-16.07Z"/><path class="cls-37" d="M283.76,48.68c.88.3-3.44,2.25-3.65,2.12.65-5.44-3.7-5.75-7.24-3.79l-.68-2.19c-.43.38-1.02.65-1.44.34-1.58-1.16-3.32-2.06-4.78.05l-1.49-.39c-.36,1.7-.84,1.67-1.29,0-.82-1.29-1.89-2.36-3.21-3.21-1.74.43-3.24.43-4.5,0,2.15-1.44,3.88-.3,3.22-4.5-1.91.08-3.88-.12-5.79,0,1.86-1.07,5.29-.81,7.38-.63,9.83.84,17.11,4.87,23.47,12.2Z"/><path class="cls-20" d="M87.07,147.67c2.38-.72,4.14-1.78,6.42-2.57.63.7-1.99,16.69-2.57,18.64-.52-1.38-1.88-.14-2.57,0l-5.78-3.86c2.14-3.33,4.15-8.23,4.5-12.21Z"/><path class="cls-27" d="M157.13,48.04c-2.01,1.05-3.86-1.76-5.53-1.95-.87-.1-1.44.66-1.54.66-.7.01-2.1-1.48-3.08-1.74-9.12-2.4-18.5-2.96-27.77-.83,12.13-6.43,27.16-4.14,37.92,3.86Z"/><path class="cls-19" d="M171.92,123.25c2.08,3.92-1.75,9.44-5.96,8.25-.96-.27-2.15-1.36-1.11-2.46.84-.68,2.12-1.32,3.86-1.93l.03-2.15c-2.26-1.45-3.12-2.66-2.6-3.64.64-.23,2.09-.91,2.57-1.29,1.85-.58,4.37,1.32,3.21,3.21Z"/><path class="cls-25" d="M264.47,44.83l1.13.93c-.54,5.09,5.72,4.85,5.39-.07l1.19-.86c2.36,2.24,1.29.73,4.21.61s3.98,1.83,4.15,4.54l3.21-1.29c.85.98.87,1.36,1.29,1.93q-1.7,1.41,0,0c.73.99,1.03,1.07,1.93,2.57-1.92-1.62-1.11,1.27-3.02,1.83-3.6,1.06-3.33-1.82-4.14-2.42-.44-.32-5.85,2.56-6.34-1.98q1.59-1.16,0,0c-2.22-.89-2.1.71-3.7,1.14-4.43,1.21-5.75-3.3-6.89-3.06-.35.07-1.58,1.7-2.33,2.21-.63.43-1.73.25-1.87.35-1.37,1.35-5.12,1.37-3.86-1.29-.31-.88.12-.88,1.29,0,1.98-1.05,3.91-1.47,5.78-1.29.71-1.15,1.13-2.44,1.29-3.86.38-.08,1.07.13,1.29,0Z"/><path class="cls-49" d="M173.84,116.82c-.15,1.82-1.96,1.5-2.57,0,.51-1.43,1.74-9.08,1.93-10.93,2.73,3.25.17,7.26.64,10.93Z"/><path class="cls-26" d="M173.84,116.82c2.34.91,2.56,6.97.32,7.06-.34.01-.8-1.21-.96-1.27-.83-.34-1.18-1.09-1.04-2.26-1.28-.2-2.01-.73-2.17-1.6.17-.22,1.25-1.82,1.29-1.93.72.14,2.03-.21,2.57,0Z"/><path class="cls-32" d="M173.2,122.6c-.21-.08-.96.49-1.29.64-.7-1.32-2.46-1.93-3.21-3.21.1-.07,1.2-1.18,1.29-1.29,3.04-.26,4.17.94,3.21,3.86Z"/><path class="cls-50" d="M168.7,127.1c-.71,1.05-2.62,1.86-3.86,1.93-.1,0-1.25-.97-1.93-.64.52-1.32,3.75-.09,5.14-1.29.2-.32.41-.32.64,0Z"/><path class="cls-52" d="M148.13,66.68c10.12,3.21,16.31,18.41,16.07,28.28-14.57-2.7-29.69-3.54-44.35-5.78.02-.15-.72-1.25-.63-2.19.11-1.06,1.24-6.24,1.57-7.47,2.76-10.29,17.76-15.87,27.34-12.83Z"/><path class="cls-11" d="M156.49,118.75c-.24-.62-.21-1.2.37-1.47-11.98-5.47-24.4-11.68-36.05-18.55-.97-.58-1.64-1.54-2.25-2.47.25-1.7.39-3.46.64-5.14,11.12,2.11,22.49,2.85,33.66,4.58,4.58.71,14.51,1.15,16.74,5.11,1.99,3.54.35,14.98-3.16,17.31s-6.18.49-9.97.64Z"/><path class="cls-28" d="M118.57,96.25c9.9,4.45,19.03,10.46,28.69,15.34,4.04,2.04,9.51,3,12.44,6.51l-3.21.65-40.49-5.78c.79-5.58,1.78-11.33,2.57-16.71Z"/><path class="cls-13" d="M119.21,154.74c.04.66-.59,1.45-.64,1.93l-9,2.57c.42-3.42,1.49-6.89,1.93-10.28,2.09,1.4,5.61,4.83,7.71,5.78Z"/><path class="cls-10" d="M263.19,118.74c-2.23-.11-4.53.17-6.76,0-.7-.05-2.14.36-1.59-.96,1.64-3.91,8.4-4.18,8.35.95Z"/><path class="cls-23" d="M266.4,127.75c.31,1.67-.31,1.13-1.28,1.58-2.41,1.11-10.32,2.01-11.57-.63-.24-1.43.5-.94,1.46-.82,1.72.22,3.25,1.22,5.26,1.17s4.05-1.37,6.13-1.3Z"/><path class="cls-38" d="M142.99,138.67c-1.8,5.46-5.33,6.61-10.28,8.36-2.37.34-4.3-.09-5.78-1.29-4.37-.68-7.53-6.25-7.71-10.28.07-.49.29-1.24.6-1.22,2.75.21,21.8,2.24,22.6,3.05l.58,1.38Z"/><path class="cls-42" d="M143.63,135.46c.4,1.53-.29,2.13-.64,3.21l-23.78-3.21c-.04-.86-.17-2.53,0-3.21.1-.22.28-.35.5-.44,1.24-.54,21.18,2.46,23.93,3.66Z"/><path class="cls-40" d="M143.63,135.46l-24.43-3.21c.19-.76.72-1.3,1.55-1.24,6.2,1.67,13.74,1.25,19.82,2.69,1.06.25,2.74.52,3.06,1.76Z"/><path class="cls-39" d="M136.56,126.46c-2.26-.39-4.61-.63-6.85-1.19-.66-.16-2.03.25-1.5-1.05,1.71-4.21,8.62-2.13,8.35,2.24Z"/><path class="cls-55" d="M126.92,145.74c2.07.32,4.8-1.02,5.78,1.29-2.23.79-4.6,3.23-5.78-1.29Z"/><path class="cls-1" d="M166.13,121.32c.2,2.67,4.88,2.41,2.57,5.78h-.64c1.88-2.68-2.36-2.98-3.21-5.14.35-.39.82-.47,1.29-.64Z"/><path class="cls-41" d="M255.48,53.18c16.88-1.88,29.9,11.79,29.57,28.28l-1.91.75c-6.99-1.2-13.85-.8-20.59,1.18-4.96.64-9.97.05-15.04-1.78-4.46-.13-8.88.68-13.24,2.42-.21,0-.43,0-.64,0-.96-8.13,1.14-14.34,5.14-21.21-.36-3.02,5.36-6.39,8.07-7.88,2.3-1.26,4.81-2.29,7.36-2.87l1.29,1.1Z"/><path class="cls-46" d="M229.12,91.1c17.22-.43,34.55-.08,51.77-.61,4.97-.15,9.36-3.47,8.65,4.15-.26,2.77-1.22,4.96-4.21,5.43-16.59-1.27-35.74,2.62-52.04.69-5.56-.66-3.99-5.39-4.17-9.66Z"/><path class="cls-4" d="M262.55,83.39c.56.18.55.4,0,.64-9.39.19-18.88-.35-28.28,0,2.06-2.34,8.24-3.9,11.25-3.9,5.58,0,11.64,4.63,17.03,3.26Z"/><path class="cls-43" d="M285.04,81.47c0,.21.02.43,0,.64-.03.42.04.86,0,1.28-3.53.08-7.1-.1-10.64-.03-3.78.07-8.14.6-11.87.67v-.64c.17-.04.63-1.11,1.56-1.37,7.14-2.03,13.67-2.81,20.93-.55Z"/><path class="cls-6" d="M292.11,83.39c-.17.21-4.72.84-5.38.68-.76-.19-.28-1.14-.4-1.32,1.36-.84,4.32,1.16,5.05-1.06,1.08-3.26-.6-11.17.09-15.01.01.08.56.58.68,1.54.2,1.61.45,14.59-.04,15.17Z"/><path class="cls-33" d="M254.83,49.97c1.35,1.34,1.58,1.6,3.86,1.29-.07.05.19.87-.13,1.12-.68.53-2.6-.3-3.08.81-5.93.66-12.64,5.45-16.71,9.64-2.25,2.31-4.95,6.31-5.6,9.5-1.49,7.28,3.79,12.6-7.9,11.07-.35-10.44-2.05-22.07,4.83-30.85.21,3.29.85,4.58,4.48,3.84,2.23-.45,1.86-2.15,2.35-2.51.34-.25,1.94.62,2.82.62,3.19,0,4.03-3.2,4.48-3.21.14,0,.8.97,1.44,1.1,2.43.48,4.77.67,5.96-1.77-3.59-2.7,2.68-6.17,3.21-.64Z"/><path class="cls-8" d="M259.98,41.61c.56.18.55.4,0,.64l-.93,1.13c-3.83-.57-4.83,2.53-2.46,5.23l-.47,1.36c-.32-.11-.89.07-1.29,0-.57-.57-1.08-2.19-2.24-1.93-1.23.55-.72,2.04-.97,2.57-3.06,1.7-6.19,2.13-8.03-1.28-1.18.51-.72,2.96-1.57,3.57-1.62,1.16-5.61-.57-5.82-.36-.25.25.2,3.02-2.29,3.25-4.54.42-3.45-7.53,2.28-4.53-.72-5.16,3.46-5.55,7.07-3.21-.23-4.15,4.92-6.94,7.94-3.89.51.51.42,3.23,1.7,1.97.31-.3-.19-2.65,2.58-4.5,1.42.15,3.15-.22,4.5,0Z"/><path class="cls-22" d="M272.19,44.83c1.32,7.94-9.53,7.84-7.71,0,1.31-.78.46-2.14,4.19-1.99,2.85.11,2.14.68,3.52,1.99Z"/><path class="cls-44" d="M263.19,44.83c.33,2.2.09,2.55-1.29,3.86l-.93-1.03c.12-1.76-.21-3.55-1-5.4v-.64c1.78.29,2.95,1.44,3.21,3.21Z"/><path class="cls-29" d="M273.47,50.61c-.75-6.9,8.4-4.55,6.12,0-1.78,3.56-4.31.73-6.12,0Z"/><path class="cls-53" d="M285.04,50.61c.12,7.61-7.48,1.74-3.2-.35,1.21-.59,2.06.24,3.2.35Z"/><path class="cls-36" d="M259.98,42.26c2.36.56,3.09,4.49,1.93,6.43-2.16,2.05-3.28,2.1-5.78,1.29-4.03-3.86-1.96-9.1,3.86-7.71Z"/><path class="cls-7" d="M238.58,47.49c3.55-.99,4.69,4.11,1.65,4.96-3.55.99-4.69-4.11-1.65-4.96Z"/><path class="cls-14" d="M233.39,51.3c1.99-.34,2.92,3.34.47,3.76-1.99.34-2.92-3.34-.47-3.76Z"/></g></svg>