<?xml version="1.0" encoding="UTF-8"?><svg id="Layer_2" xmlns="http://www.w3.org/2000/svg" viewBox="0 0 332.18 269.81"><defs><style>.cls-1{fill:#fff;font-family:Assistant-Bold, Assistant;font-size:20px;font-weight:700;}.cls-2{fill:#b2b2b2;font-family:Assistant-Regular, Assistant;font-size:15px;}.cls-3{stroke:#fff;}.cls-3,.cls-4{fill:none;stroke-miterlimit:10;}.cls-4{opacity:.25;stroke:#b2b2b2;}</style></defs><g id="illustrations"><line class="cls-4" x1="35.65" y1="199.16" x2="332.18" y2="199.16"/><line class="cls-4" x1="35.65" y1="147.46" x2="332.18" y2="147.46"/><line class="cls-4" x1="35.65" y1="95.75" x2="332.18" y2="95.75"/><line class="cls-4" x1="35.65" y1="44.05" x2="332.18" y2="44.05"/><line class="cls-3" x1="35.75" y1="250.87" x2="332.08" y2="250.87"/><line class="cls-3" x1="35.67" y1="43.76" x2="35.67" y2="250.87"/><text class="cls-2" transform="translate(22.03 252.57) scale(1.02 1)"><tspan x="0" y="0">0</tspan></text><text class="cls-2" transform="translate(6.92 201.27) scale(1.02 1)"><tspan x="0" y="0">250</tspan></text><text class="cls-2" transform="translate(6.92 98.67) scale(1.02 1)"><tspan x="0" y="0">750</tspan></text><text class="cls-2" transform="translate(6.92 149.97) scale(1.02 1)"><tspan x="0" y="0">500</tspan></text><text class="cls-2" transform="translate(0 47.37) scale(1.02 1)"><tspan x="0" y="0">1000</tspan></text><text class="cls-2" transform="translate(53.92 265.92)"><tspan x="0" y="0">1</tspan></text><text class="cls-2" transform="translate(180.09 265.92)"><tspan x="0" y="0">3</tspan></text><text class="cls-2" transform="translate(116.78 265.92)"><tspan x="0" y="0">2</tspan></text><text class="cls-2" transform="translate(306.7 265.92)"><tspan x="0" y="0">5</tspan></text><text class="cls-2" transform="translate(243.39 265.92)"><tspan x="0" y="0">4</tspan></text><text class="cls-1" transform="translate(63.89 17.5)"><tspan x="0" y="0">תועלת שולית - סולם לינארי</tspan></text></g></svg>