<?xml version="1.0" encoding="UTF-8"?><svg id="Layer_2" xmlns="http://www.w3.org/2000/svg" viewBox="0 0 332.18 271.28"><defs><style>.cls-1{fill:#fff;font-family:Assistant-Bold, Assistant;font-size:20px;font-weight:700;}.cls-2{fill:#b2b2b2;font-family:Assistant-Regular, Assistant;font-size:15px;}.cls-3{stroke:#fff;}.cls-3,.cls-4{fill:none;stroke-miterlimit:10;}.cls-4{opacity:.25;stroke:#b2b2b2;}</style></defs><g id="illustrations"><line class="cls-4" x1="35.65" y1="183.39" x2="332.18" y2="183.39"/><line class="cls-4" x1="35.65" y1="114.45" x2="332.18" y2="114.45"/><line class="cls-4" x1="35.65" y1="45.51" x2="332.18" y2="45.51"/><line class="cls-3" x1="35.75" y1="252.34" x2="332.08" y2="252.34"/><line class="cls-3" x1="35.67" y1="45.23" x2="35.67" y2="252.34"/><text class="cls-2" transform="translate(22.03 254.04) scale(1.02 1)"><tspan x="0" y="0">0</tspan></text><text class="cls-2" transform="translate(7.55 117.24) scale(1.02 1)"><tspan x="0" y="0">100</tspan></text><text class="cls-2" transform="translate(15.11 185.64) scale(1.02 1)"><tspan x="0" y="0">10</tspan></text><text class="cls-2" transform="translate(0 48.84) scale(1.02 1)"><tspan x="0" y="0">1000</tspan></text><text class="cls-2" transform="translate(53.92 267.39)"><tspan x="0" y="0">1</tspan></text><text class="cls-2" transform="translate(180.09 267.39)"><tspan x="0" y="0">3</tspan></text><text class="cls-2" transform="translate(116.78 267.39)"><tspan x="0" y="0">2</tspan></text><text class="cls-2" transform="translate(306.7 267.39)"><tspan x="0" y="0">5</tspan></text><text class="cls-2" transform="translate(243.39 267.39)"><tspan x="0" y="0">4</tspan></text><text class="cls-1" transform="translate(57.39 17.5)"><tspan x="0" y="0">תועלת שולית - סולם לוגריתמי</tspan></text></g></svg>