<?xml version="1.0" encoding="UTF-8"?><svg id="Layer_2" xmlns="http://www.w3.org/2000/svg" xmlns:xlink="http://www.w3.org/1999/xlink" viewBox="0 0 2561.46 2673.34"><defs><style>.cls-1{fill:#fff;}.cls-2{opacity:.25;}.cls-3{opacity:.4;}.cls-4{fill:url(#linear-gradient);}.cls-5{clip-path:url(#clippath);}.cls-6{opacity:.5;}</style><linearGradient id="linear-gradient" x1="927.3" y1="2521.42" x2="927.3" y2="1721.42" gradientUnits="userSpaceOnUse"><stop offset=".28" stop-color="#21244a"/><stop offset="1" stop-color="#000"/></linearGradient><clipPath id="clippath"><rect class="cls-4" x="427.3" y="1721.42" width="1000" height="800"/></clipPath></defs><g id="bg"><rect class="cls-4" x="427.3" y="1721.42" width="1000" height="800"/><g class="cls-5"><g class="cls-2"><circle class="cls-1" cx="2535.86" cy="287.03" r="3.42"/><circle class="cls-1" cx="2489.27" cy="441.49" r="3.19"/><circle class="cls-1" cx="2395.56" cy="433.05" r="6.4"/><circle class="cls-1" cx="2292.32" cy="483.33" r="5.95"/><circle class="cls-1" cx="2204.8" cy="568.43" r="1.53"/><circle class="cls-1" cx="2106.88" cy="589.58" r="3.72"/><circle class="cls-1" cx="2034.47" cy="607.69" r="8.25"/><circle class="cls-1" cx="2322.83" cy="782.4" r="6.62"/><circle class="cls-1" cx="2268.33" cy="766.72" r="3.44"/><circle class="cls-1" cx="2327.52" cy="870.62" r="7.22"/><circle class="cls-1" cx="2064.21" cy="868.27" r="3.53"/><circle class="cls-1" cx="2216.19" cy="1084.83" r="3.05"/><circle class="cls-1" cx="1955.15" cy="1009.94" r="1.57"/><circle class="cls-1" cx="1884" cy="1209.23" r="6.85"/><circle class="cls-1" cx="1681.56" cy="1110.99" r="2.61"/><circle class="cls-1" cx="1638.85" cy="1142.12" r="1.66"/><circle class="cls-1" cx="1519.23" cy="839.29" r="5.95"/><circle class="cls-1" cx="1483.23" cy="1117.79" r="8.33"/><circle class="cls-1" cx="1400.37" cy="1099.23" r="6.91"/><circle class="cls-1" cx="1400.93" cy="1278.04" r="6.31"/><circle class="cls-1" cx="1318.13" cy="1537.94" r="6.81"/><circle class="cls-1" cx="1598.17" cy="1346.49" r="8.35"/><circle class="cls-1" cx="1766.51" cy="1467.53" r="4.73"/><circle class="cls-1" cx="1662.74" cy="1596.46" r="1.37"/><circle class="cls-1" cx="1615.83" cy="1732.03" r="1.87"/><circle class="cls-1" cx="1584.08" cy="1819.1" r="6.95"/><circle class="cls-1" cx="1449.79" cy="1828.3" r="3.45"/><circle class="cls-1" cx="1435.62" cy="1904.71" r="5.76"/><circle class="cls-1" cx="1565.06" cy="2076.95" r="5.37"/><circle class="cls-1" cx="1434.76" cy="2052.42" r="2.32"/><circle class="cls-1" cx="1256.52" cy="2139.58" r="7.2"/><circle class="cls-1" cx="1111.62" cy="2226.15" r="7.36"/><circle class="cls-1" cx="1088.8" cy="2228.18" r="3.51"/><circle class="cls-1" cx="1210.07" cy="2061.02" r="7.36"/><circle class="cls-1" cx="1168.92" cy="1971.05" r="1.44"/><circle class="cls-1" cx="831.41" cy="2095.91" r="7.61"/><circle class="cls-1" cx="988.74" cy="1938.27" r="6.14"/><circle class="cls-1" cx="773.19" cy="1991.86" r="5.38"/><circle class="cls-1" cx="833.78" cy="1928.25" r="2.34"/><circle class="cls-1" cx="884.42" cy="1908.8" r="3.03"/><circle class="cls-1" cx="1073.45" cy="1820.69" r="6.15"/><circle class="cls-1" cx="760.87" cy="1653.42" r="2.13"/><circle class="cls-1" cx="801.58" cy="1575.67" r="4.26"/><circle class="cls-1" cx="1081.29" cy="1487.81" r="4.07"/><circle class="cls-1" cx="905.5" cy="1407" r="6.54"/><circle class="cls-1" cx="940.06" cy="1306.79" r="2.54"/><circle class="cls-1" cx="1222.87" cy="1315.26" r="1.65"/><circle class="cls-1" cx="1011.03" cy="1124.71" r="2.51"/><circle class="cls-1" cx="1301.15" cy="1112.48" r="7.09"/><circle class="cls-1" cx="1072.24" cy="980.04" r="6.27"/><circle class="cls-1" cx="1331.07" cy="897.94" r="6.09"/><circle class="cls-1" cx="1111.76" cy="792.63" r="3.12"/><circle class="cls-1" cx="1138.09" cy="681.03" r="4.67"/><circle class="cls-1" cx="957.69" cy="718.31" r="7.82"/><circle class="cls-1" cx="879.01" cy="644.34" r="8.35"/><circle class="cls-1" cx="914.1" cy="446.56" r="1.12"/><circle class="cls-1" cx="702.57" cy="480.53" r="6.81"/><circle class="cls-1" cx="510.34" cy="554.49" r="6.87"/><circle class="cls-1" cx="545.25" cy="325.22" r="2.41"/><circle class="cls-1" cx="419.19" cy="401.85" r="1.41"/><circle class="cls-1" cx="343.1" cy="414.88" r="6.81"/></g><g class="cls-3"><circle class="cls-1" cx="114.94" cy="2302.62" r="8.15"/><circle class="cls-1" cx="243.17" cy="2288.25" r="1.16"/><circle class="cls-1" cx="378.71" cy="2511.01" r="6.8"/><circle class="cls-1" cx="499.7" cy="2463.43" r="3.94"/><circle class="cls-1" cx="510.17" cy="2291.09" r="7.68"/><circle class="cls-1" cx="635.81" cy="2212.2" r="6.54"/><circle class="cls-1" cx="880.49" cy="2313.84" r="7.8"/><circle class="cls-1" cx="882.61" cy="2044.47" r="2.36"/><circle class="cls-1" cx="1004.67" cy="2044.51" r="5.58"/><circle class="cls-1" cx="952.79" cy="1826.62" r="2.79"/><circle class="cls-1" cx="927.33" cy="1628.11" r="8.33"/><circle class="cls-1" cx="1097.55" cy="1606.34" r="1.78"/><circle class="cls-1" cx="896.45" cy="1558.83" r="1.88"/><circle class="cls-1" cx="897.02" cy="1340.25" r="4.46"/><circle class="cls-1" cx="992.12" cy="1317" r="4.37"/><circle class="cls-1" cx="1310.43" cy="1288.8" r="6.9"/><circle class="cls-1" cx="1316.38" cy="1189.35" r="4.02"/><circle class="cls-1" cx="1373.09" cy="1187.81" r="2.53"/><circle class="cls-1" cx="1359.85" cy="969.49" r="7.83"/><circle class="cls-1" cx="1573.56" cy="893.34" r="6.64"/><circle class="cls-1" cx="1574.67" cy="811.99" r="6.45"/><circle class="cls-1" cx="1640.37" cy="1127.65" r="4.88"/><circle class="cls-1" cx="1907.74" cy="958.97" r="5.47"/><circle class="cls-1" cx="1825.18" cy="1157.58" r="4.84"/><circle class="cls-1" cx="2110.02" cy="1230.9" r="3.99"/><circle class="cls-1" cx="2152.47" cy="1345.29" r="6.36"/><circle class="cls-1" cx="2182.97" cy="1514.07" r="7.65"/><circle class="cls-1" cx="1893.63" cy="1519.48" r="2.79"/><circle class="cls-1" cx="1766.1" cy="1599.03" r="2.64"/><circle class="cls-1" cx="1817.63" cy="1817.03" r="4.53"/><circle class="cls-1" cx="1966.36" cy="1790.54" r="4.37"/><circle class="cls-1" cx="1943.45" cy="1944.5" r="5.64"/><circle class="cls-1" cx="2142.93" cy="1969.88" r="4.35"/><circle class="cls-1" cx="2254.34" cy="2004.38" r="4.98"/><circle class="cls-1" cx="2297.95" cy="2003.17" r="7.2"/><circle class="cls-1" cx="2176.64" cy="2334.78" r="3.21"/><circle class="cls-1" cx="2347.15" cy="2141.48" r="1.55"/><circle class="cls-1" cx="2429.71" cy="2209.75" r="1.11"/><circle class="cls-1" cx="2546.61" cy="2206.61" r="1.61"/></g><g class="cls-6"><path class="cls-1" d="M258.96,1490.25l1.49,8.72c1.36,7.94,7.58,14.16,15.52,15.52l8.72,1.49-8.72,1.49c-7.94,1.36-14.16,7.58-15.52,15.52l-1.49,8.72-1.49-8.72c-1.36-7.94-7.58-14.16-15.52-15.52l-8.72-1.49,8.72-1.49c7.94-1.36,14.16-7.58,15.52-15.52l1.49-8.72Z"/><path class="cls-1" d="M742.63,1639.6h0c.81,4.76,4.54,8.48,9.3,9.3h0s0,0,0,0c-4.76.81-8.48,4.54-9.3,9.3h0s0,0,0,0c-.81-4.76-4.54-8.48-9.3-9.3h0s0,0,0,0c4.76-.81,8.48-4.54,9.3-9.3h0Z"/><path class="cls-1" d="M735.96,2645.95h0c1.2,7.01,6.69,12.5,13.7,13.7h0s0,0,0,0c-7.01,1.2-12.5,6.69-13.7,13.7h0s0,0,0,0c-1.2-7.01-6.69-12.5-13.7-13.7h0s0,0,0,0c7.01-1.2,12.5-6.69,13.7-13.7h0Z"/><path class="cls-1" d="M1174.44,2418.66h0c1.04,6.09,5.82,10.87,11.91,11.91h0s0,0,0,0c-6.09,1.04-10.87,5.82-11.91,11.91h0s0,0,0,0c-1.04-6.09-5.82-10.87-11.91-11.91h0s0,0,0,0c6.09-1.04,10.87-5.82,11.91-11.91h0Z"/><path class="cls-1" d="M1651.24,2075.99h0c1.01,5.93,5.66,10.57,11.59,11.59h0s0,0,0,0c-5.93,1.01-10.57,5.66-11.59,11.59h0s0,0,0,0c-1.01-5.93-5.66-10.57-11.59-11.59h0s0,0,0,0c5.93-1.01,10.57-5.66,11.59-11.59h0Z"/><path class="cls-1" d="M2145.39,2399.13h0c.78,4.54,4.33,8.1,8.87,8.87h0,0c-4.54.78-8.1,4.33-8.87,8.87h0s0,0,0,0c-.78-4.54-4.33-8.1-8.87-8.87h0,0c4.54-.78,8.1-4.33,8.87-8.87h0Z"/><path class="cls-1" d="M1945.13,1801.09h0c1.25,7.32,6.99,13.06,14.31,14.31h0s0,0,0,0c-7.32,1.25-13.06,6.99-14.31,14.31h0s0,0,0,0c-1.25-7.32-6.99-13.06-14.31-14.31h0s0,0,0,0c7.32-1.25,13.06-6.99,14.31-14.31h0Z"/><path class="cls-1" d="M2042.21,2577.8h0c1.16,6.78,6.47,12.09,13.25,13.25h0s0,0,0,0c-6.78,1.16-12.09,6.47-13.25,13.25h0s0,0,0,0c-1.16-6.78-6.47-12.09-13.25-13.25h0s0,0,0,0c6.78-1.16,12.09-6.47,13.25-13.25h0Z"/><path class="cls-1" d="M1736.37,2051.27l.19,1.13c1.36,7.94,7.58,14.16,15.52,15.52l1.13.19-1.13.19c-7.94,1.36-14.16,7.58-15.52,15.52l-.19,1.13-.19-1.13c-1.36-7.94-7.58-14.16-15.52-15.52l-1.13-.19,1.13-.19c7.94-1.36,14.16-7.58,15.52-15.52l.19-1.13Z"/><path class="cls-1" d="M1366.15,2220.43h0c1.02,5.94,5.67,10.6,11.62,11.62h0s0,0,0,0c-5.94,1.02-10.6,5.67-11.62,11.62h0s0,0,0,0c-1.02-5.94-5.67-10.6-11.62-11.62h0s0,0,0,0c5.94-1.02,10.6-5.67,11.62-11.62h0Z"/><path class="cls-1" d="M783.74,2105.01l.23,1.36c1.36,7.94,7.58,14.16,15.52,15.52l1.36.23-1.36.23c-7.94,1.36-14.16,7.58-15.52,15.52l-.23,1.36-.23-1.36c-1.36-7.94-7.58-14.16-15.52-15.52l-1.36-.23,1.36-.23c7.94-1.36,14.16-7.58,15.52-15.52l.23-1.36Z"/><path class="cls-1" d="M853.54,1227.33h0c1.06,6.17,5.89,11.01,12.07,12.07h0s0,0,0,0c-6.17,1.06-11.01,5.89-12.07,12.07h0s0,0,0,0c-1.06-6.17-5.89-11.01-12.07-12.07h0s0,0,0,0c6.17-1.06,11.01-5.89,12.07-12.07h0Z"/><path class="cls-1" d="M1027.53,1017.12h0c.96,5.64,5.38,10.05,11.01,11.01h0s0,0,0,0c-5.64.96-10.05,5.38-11.01,11.01h0s0,0,0,0c-.96-5.64-5.38-10.05-11.01-11.01h0s0,0,0,0c5.64-.96,10.05-5.38,11.01-11.01h0Z"/><path class="cls-1" d="M1363.32,978.63h0c1.17,6.86,6.55,12.24,13.41,13.41h0s0,0,0,0c-6.86,1.17-12.24,6.55-13.41,13.41h0s0,0,0,0c-1.17-6.86-6.55-12.24-13.41-13.41h0s0,0,0,0c6.86-1.17,12.24-6.55,13.41-13.41h0Z"/><path class="cls-1" d="M1622.27,626.5l1.2,7c1.36,7.94,7.58,14.16,15.52,15.52l7,1.2-7,1.2c-7.94,1.36-14.16,7.58-15.52,15.52l-1.2,7-1.2-7c-1.36-7.94-7.58-14.16-15.52-15.52l-7-1.2,7-1.2c7.94-1.36,14.16-7.58,15.52-15.52l1.2-7Z"/><path class="cls-1" d="M1587.94,1274.04l1.6,9.34c1.36,7.94,7.58,14.16,15.52,15.52l9.34,1.6-9.34,1.6c-7.94,1.36-14.16,7.58-15.52,15.52l-1.6,9.34-1.6-9.34c-1.36-7.94-7.58-14.16-15.52-15.52l-9.34-1.6,9.34-1.6c7.94-1.36,14.16-7.58,15.52-15.52l1.6-9.34Z"/><path class="cls-1" d="M1737.86,1536.77h0c.79,4.6,4.39,8.2,8.99,8.99h0s0,0,0,0c-4.6.79-8.2,4.39-8.99,8.99h0s0,0,0,0c-.79-4.6-4.39-8.2-8.99-8.99h0s0,0,0,0c4.6-.79,8.2-4.39,8.99-8.99h0Z"/><path class="cls-1" d="M1618.59,1662.85l.33,1.91c1.36,7.94,7.58,14.16,15.52,15.52l1.91.33-1.91.33c-7.94,1.36-14.16,7.58-15.52,15.52l-.33,1.91-.33-1.91c-1.36-7.94-7.58-14.16-15.52-15.52l-1.91-.33,1.91-.33c7.94-1.36,14.16-7.58,15.52-15.52l.33-1.91Z"/><path class="cls-1" d="M1222.87,1358.28h0c1.26,7.39,7.05,13.17,14.44,14.44h0s0,0,0,0c-7.39,1.26-13.17,7.05-14.44,14.44h0s0,0,0,0c-1.26-7.39-7.05-13.17-14.44-14.44h0s0,0,0,0c7.39-1.26,13.17-7.05,14.44-14.44h0Z"/><path class="cls-1" d="M1561.15,468.51h0c1.27,7.42,7.08,13.23,14.5,14.5h0s0,0,0,0c-7.42,1.27-13.23,7.08-14.5,14.5h0s0,0,0,0c-1.27-7.42-7.08-13.23-14.5-14.5h0s0,0,0,0c7.42-1.27,13.23-7.08,14.5-14.5h0Z"/><path class="cls-1" d="M1458.6,0l.56,3.3c1.36,7.94,7.58,14.16,15.52,15.52l3.3.56-3.3.56c-7.94,1.36-14.16,7.58-15.52,15.52l-.56,3.3-.56-3.3c-1.36-7.94-7.58-14.16-15.52-15.52l-3.3-.56,3.3-.56c7.94-1.36,14.16-7.58,15.52-15.52l.56-3.3Z"/><path class="cls-1" d="M1790.35,709.65l1.78,10.4c1.36,7.94,7.58,14.16,15.52,15.52l10.4,1.78-10.4,1.78c-7.94,1.36-14.16,7.58-15.52,15.52l-1.78,10.4-1.78-10.4c-1.36-7.94-7.58-14.16-15.52-15.52l-10.4-1.78,10.4-1.78c7.94-1.36,14.16-7.58,15.52-15.52l1.78-10.4Z"/><path class="cls-1" d="M2037.57,608.05l.8,4.7c1.36,7.94,7.58,14.16,15.52,15.52l4.7.8-4.7.8c-7.94,1.36-14.16,7.58-15.52,15.52l-.8,4.7-.8-4.7c-1.36-7.94-7.58-14.16-15.52-15.52l-4.7-.8,4.7-.8c7.94-1.36,14.16-7.58,15.52-15.52l.8-4.7Z"/><path class="cls-1" d="M2485.13,600.96l1.93,11.3c1.36,7.94,7.58,14.16,15.52,15.52l11.3,1.93-11.3,1.93c-7.94,1.36-14.16,7.58-15.52,15.52l-1.93,11.3-1.93-11.3c-1.36-7.94-7.58-14.16-15.52-15.52l-11.3-1.93,11.3-1.93c7.94-1.36,14.16-7.58,15.52-15.52l1.93-11.3Z"/></g></g></g></svg>