<?xml version="1.0" encoding="UTF-8"?><svg id="Layer_2" xmlns="http://www.w3.org/2000/svg" xmlns:xlink="http://www.w3.org/1999/xlink" viewBox="0 0 5488.25 2237.75"><defs><style>.cls-1{fill:#a139ee;}.cls-2{fill:#637ce5;}.cls-3{fill:#fff;opacity:.08;}.cls-4{fill:#5168af;}.cls-5{fill:none;}.cls-6{fill:#4768c4;}.cls-7{fill:#a1b1ff;}.cls-8{fill:#ff5f7a;}.cls-9{fill:#ffa769;}.cls-10{fill:#606dd6;}.cls-11{fill:#324c84;}.cls-12{fill:#294196;}.cls-13{fill:#ccd7ff;}.cls-14{clip-path:url(#clippath);}.cls-15{fill:#7a8ffa;}</style><clipPath id="clippath"><rect class="cls-5" x="2389.51" y="724.78" width="1000" height="800"/></clipPath></defs><g id="bg"><g class="cls-14"><polygon class="cls-3" points="2365.28 727.56 2566.29 1505.78 2943.61 1480.68 2693.24 758.93 2365.28 727.56"/><path class="cls-4" d="M3429.51,714.34h-1056.36l-197.08,761.93h1404.98l-151.54-761.93ZM3450.18,1417.38h-1130.35c-3.29,0-6.48-.46-9.47-1.29-18.37-5.1-30.04-24.68-24.21-44.15l57.89-251.79,7.26-24.28,26.26-87.76,30.18-100.85,24.21-80.89c4.46-14.94,28.22-60.04,43.74-60.04l832.66,3.9c15.53,0,25.23,41.2,29.69,56.14l12.52,41.82,4.39,14.67h0s8.55,28.63,8.55,28.63l7.52,25.12,3.06,10.25,8.81,29.44,23.56,78.7,8.9,29.73,3.88,12.98,10.51,35.1,54.1,239.14c6.77,22.64-10.13,45.44-33.68,45.44Z"/><polygon class="cls-7" points="1913.23 1473.98 3833.53 1473.98 3697.93 1527.16 2048.83 1527.16 1913.23 1473.98"/><polygon class="cls-13" points="2025.9 1486.39 1976.12 1486.39 1954.14 1478.46 2005.13 1478.46 2025.9 1486.39"/><polygon class="cls-13" points="2054.59 1497.34 2006.49 1497.34 1985.98 1489.94 2035.21 1489.94 2054.59 1497.34"/><polygon class="cls-13" points="2081.41 1507.59 2034.88 1507.59 2015.69 1500.67 2063.29 1500.67 2081.41 1507.59"/><polygon class="cls-13" points="2106.54 1517.18 2061.47 1517.18 2043.49 1510.7 2089.56 1510.7 2106.54 1517.18"/><polygon class="cls-13" points="2109.45 1486.39 2059.67 1486.39 2039.73 1478.46 2090.71 1478.46 2109.45 1486.39"/><polygon class="cls-13" points="2135.33 1497.34 2087.23 1497.34 2068.62 1489.94 2117.85 1489.94 2135.33 1497.34"/><polygon class="cls-13" points="2159.52 1507.59 2112.99 1507.59 2095.58 1500.67 2143.18 1500.67 2159.52 1507.59"/><polygon class="cls-13" points="2182.19 1517.18 2137.13 1517.18 2120.81 1510.7 2166.87 1510.7 2182.19 1517.18"/><polygon class="cls-13" points="2193 1486.39 2143.23 1486.39 2125.31 1478.46 2176.3 1478.46 2193 1486.39"/><polygon class="cls-13" points="2216.07 1497.34 2167.97 1497.34 2151.26 1489.94 2200.49 1489.94 2216.07 1497.34"/><polygon class="cls-13" points="2237.64 1507.59 2191.1 1507.59 2175.47 1500.67 2223.06 1500.67 2237.64 1507.59"/><polygon class="cls-13" points="2257.84 1517.18 2212.78 1517.18 2198.13 1510.7 2244.19 1510.7 2257.84 1517.18"/><polygon class="cls-13" points="2276.55 1486.39 2226.78 1486.39 2210.9 1478.46 2261.89 1478.46 2276.55 1486.39"/><polygon class="cls-13" points="2296.81 1497.34 2248.71 1497.34 2233.9 1489.94 2283.13 1489.94 2296.81 1497.34"/><polygon class="cls-13" points="2315.75 1507.59 2269.22 1507.59 2255.36 1500.67 2302.95 1500.67 2315.75 1507.59"/><polygon class="cls-13" points="2333.5 1517.18 2288.43 1517.18 2275.44 1510.7 2321.5 1510.7 2333.5 1517.18"/><polygon class="cls-13" points="2360.11 1486.39 2310.33 1486.39 2296.49 1478.46 2347.48 1478.46 2360.11 1486.39"/><polygon class="cls-13" points="2377.55 1497.34 2329.45 1497.34 2316.54 1489.94 2365.77 1489.94 2377.55 1497.34"/><polygon class="cls-13" points="2393.86 1507.59 2347.33 1507.59 2335.25 1500.67 2382.84 1500.67 2393.86 1507.59"/><polygon class="cls-13" points="2409.15 1517.18 2364.08 1517.18 2352.76 1510.7 2398.82 1510.7 2409.15 1517.18"/><polygon class="cls-13" points="2443.66 1486.39 2393.88 1486.39 2382.08 1478.46 2433.06 1478.46 2443.66 1486.39"/><polygon class="cls-13" points="2739.77 1517.15 2507.29 1517.15 2458.56 1478.46 2721.54 1478.46 2739.77 1517.15"/><polygon class="cls-11" points="2726.02 1515.26 2517.76 1515.26 2475.91 1480.84 2708.32 1480.84 2726.02 1515.26"/><polygon class="cls-13" points="2458.29 1497.34 2410.19 1497.34 2399.18 1489.94 2448.41 1489.94 2458.29 1497.34"/><polygon class="cls-13" points="2471.98 1507.59 2425.44 1507.59 2415.14 1500.67 2462.73 1500.67 2471.98 1507.59"/><polygon class="cls-13" points="2484.8 1517.18 2439.73 1517.18 2430.07 1510.7 2476.13 1510.7 2484.8 1517.18"/><polygon class="cls-13" points="3731.46 1486.39 3781.24 1486.39 3803.22 1478.46 3752.23 1478.46 3731.46 1486.39"/><polygon class="cls-13" points="3702.77 1497.34 3750.87 1497.34 3771.38 1489.94 3722.15 1489.94 3702.77 1497.34"/><polygon class="cls-13" points="3675.95 1507.59 3722.48 1507.59 3741.66 1500.67 3694.07 1500.67 3675.95 1507.59"/><polygon class="cls-13" points="3650.81 1517.18 3695.88 1517.18 3713.86 1510.7 3667.8 1510.7 3650.81 1517.18"/><polygon class="cls-13" points="3647.91 1486.39 3697.68 1486.39 3717.63 1478.46 3666.64 1478.46 3647.91 1486.39"/><polygon class="cls-13" points="3622.03 1497.34 3670.13 1497.34 3688.74 1489.94 3639.51 1489.94 3622.03 1497.34"/><polygon class="cls-13" points="3597.83 1507.59 3644.37 1507.59 3661.77 1500.67 3614.18 1500.67 3597.83 1507.59"/><polygon class="cls-13" points="3575.16 1517.18 3620.23 1517.18 3636.55 1510.7 3590.49 1510.7 3575.16 1517.18"/><polygon class="cls-13" points="3564.35 1486.39 3614.13 1486.39 3632.04 1478.46 3581.05 1478.46 3564.35 1486.39"/><polygon class="cls-13" points="3541.29 1497.34 3589.39 1497.34 3606.1 1489.94 3556.87 1489.94 3541.29 1497.34"/><polygon class="cls-13" points="3519.72 1507.59 3566.25 1507.59 3581.89 1500.67 3534.29 1500.67 3519.72 1507.59"/><polygon class="cls-13" points="3499.51 1517.18 3544.58 1517.18 3559.23 1510.7 3513.17 1510.7 3499.51 1517.18"/><polygon class="cls-13" points="3480.8 1486.39 3530.58 1486.39 3546.46 1478.46 3495.47 1478.46 3480.8 1486.39"/><polygon class="cls-13" points="3460.54 1497.34 3508.65 1497.34 3523.46 1489.94 3474.23 1489.94 3460.54 1497.34"/><polygon class="cls-13" points="3441.61 1507.59 3488.14 1507.59 3502 1500.67 3454.4 1500.67 3441.61 1507.59"/><polygon class="cls-13" points="3423.86 1517.18 3468.93 1517.18 3481.92 1510.7 3435.86 1510.7 3423.86 1517.18"/><polygon class="cls-13" points="3397.25 1486.39 3447.03 1486.39 3460.87 1478.46 3409.88 1478.46 3397.25 1486.39"/><polygon class="cls-13" points="3379.8 1497.34 3427.9 1497.34 3440.82 1489.94 3391.59 1489.94 3379.8 1497.34"/><polygon class="cls-13" points="3363.49 1507.59 3410.03 1507.59 3422.11 1500.67 3374.51 1500.67 3363.49 1507.59"/><polygon class="cls-13" points="3348.21 1517.18 3393.28 1517.18 3404.6 1510.7 3358.54 1510.7 3348.21 1517.18"/><polygon class="cls-13" points="3313.7 1486.39 3363.47 1486.39 3375.28 1478.46 3324.29 1478.46 3313.7 1486.39"/><polygon class="cls-13" points="3017.59 1517.15 3250.07 1517.15 3298.8 1478.46 3035.82 1478.46 3017.59 1517.15"/><polygon class="cls-11" points="3031.33 1515.26 3239.6 1515.26 3281.45 1480.84 3049.04 1480.84 3031.33 1515.26"/><polygon class="cls-13" points="3299.06 1497.34 3347.16 1497.34 3358.18 1489.94 3308.95 1489.94 3299.06 1497.34"/><polygon class="cls-13" points="3285.38 1507.59 3331.92 1507.59 3342.22 1500.67 3294.63 1500.67 3285.38 1507.59"/><polygon class="cls-13" points="3272.56 1517.18 3317.63 1517.18 3327.29 1510.7 3281.23 1510.7 3272.56 1517.18"/><path class="cls-10" d="M2048.83,1527.16h1649.1v198.03h-1645.13s-3.97-181.74-3.97-198.03Z"/><rect class="cls-15" x="2098.22" y="1582.33" width="545.06" height="5.87"/><rect class="cls-15" x="2098.22" y="1625.77" width="545.06" height="5.87"/><rect class="cls-15" x="2098.22" y="1669.22" width="545.06" height="5.87"/><rect class="cls-15" x="3093.55" y="1582.33" width="545.06" height="5.87"/><rect class="cls-15" x="3093.55" y="1625.77" width="545.06" height="5.87"/><rect class="cls-15" x="3093.55" y="1669.22" width="545.06" height="5.87"/><path class="cls-15" d="M3074.25,1706.18h-401.79v-150.99h401.79v150.99ZM2677.3,1701.33h392.1v-141.29h-392.1v141.29Z"/><rect class="cls-1" x="2693.58" y="1574.95" width="19.69" height="19.69"/><rect class="cls-1" x="2931.85" y="1673.4" width="19.69" height="19.69"/><rect class="cls-1" x="2966.31" y="1673.4" width="19.69" height="19.69"/><rect class="cls-1" x="3000.77" y="1673.4" width="19.69" height="19.69"/><rect class="cls-1" x="3035.23" y="1673.4" width="19.69" height="19.69"/><rect class="cls-1" x="2931.85" y="1571.99" width="19.69" height="19.69"/><rect class="cls-1" x="2966.31" y="1571.99" width="19.69" height="19.69"/><rect class="cls-1" x="3000.77" y="1571.99" width="19.69" height="19.69"/><rect class="cls-1" x="3035.23" y="1571.99" width="19.69" height="19.69"/><rect class="cls-1" x="3000.77" y="1603.5" width="19.69" height="19.69"/><rect class="cls-1" x="3035.23" y="1603.5" width="19.69" height="19.69"/><rect class="cls-1" x="2606.28" y="1548.03" width="19.69" height="19.69"/><rect class="cls-1" x="2098.89" y="1548.03" width="19.69" height="19.69"/><rect class="cls-1" x="2139.58" y="1548.03" width="19.69" height="19.69"/><rect class="cls-1" x="2180.28" y="1548.03" width="19.69" height="19.69"/><rect class="cls-1" x="2139.58" y="1600.55" width="19.69" height="19.69"/><rect class="cls-1" x="2180.28" y="1600.55" width="19.69" height="19.69"/><rect class="cls-1" x="2220.98" y="1600.55" width="19.69" height="19.69"/><rect class="cls-1" x="2139.58" y="1687.19" width="19.69" height="19.69"/><rect class="cls-1" x="2180.28" y="1687.19" width="19.69" height="19.69"/><rect class="cls-1" x="2261.67" y="1548.03" width="19.69" height="19.69"/><rect class="cls-1" x="3441.86" y="1641.9" width="19.69" height="19.69"/><rect class="cls-1" x="3482.56" y="1641.9" width="19.69" height="19.69"/><rect class="cls-1" x="3107.1" y="1641.9" width="19.69" height="19.69"/><rect class="cls-1" x="3523.25" y="1641.9" width="19.69" height="19.69"/><rect class="cls-1" x="3482.56" y="1600.55" width="19.69" height="19.69"/><rect class="cls-1" x="3523.25" y="1600.55" width="19.69" height="19.69"/><rect class="cls-1" x="3563.95" y="1600.55" width="19.69" height="19.69"/><rect class="cls-1" x="3482.56" y="1687.19" width="19.69" height="19.69"/><rect class="cls-1" x="3523.25" y="1687.19" width="19.69" height="19.69"/><rect class="cls-1" x="3604.64" y="1641.9" width="19.69" height="19.69"/><path class="cls-1" d="M3495.54,1387.98l-82.7-334.72-34.59-115.57-11.31-37.8-13.83-46.26-13.38-72.7c-4.78-15.95-19.41-26.87-36.01-26.87h-829.83c-16.59,0-31.22,10.92-36,26.87l-155.83,607.05c-7.24,24.2,10.82,48.56,36,48.56h1141.48c25.18,0,43.24-24.36,36-48.56ZM3430.62,1417.38h-1083.64c-3.29,0-6.48-.46-9.47-1.29-18.37-5.1-30.04-24.68-24.21-44.15,0,0,109.22-462.17,140.31-573.03,4.26-15.19,18.11-25.68,33.89-25.68h807.11c8.46,0,15.77,5.91,17.53,14.18,6.08,28.66,99.06,345.4,99.06,345.4l53.1,239.14c6.77,22.64-10.13,45.44-33.68,45.44Z"/><polygon class="cls-1" points="299.06 0 0 1.34 0 1.34 299.06 0"/><polygon class="cls-10" points="335.29 1637.39 335.29 2235.24 621.24 2236.65 621.24 1693.46 335.29 1637.39"/><polygon class="cls-15" points="769.61 1654.01 768.49 2154.58 622.39 2237.75 622.39 1694.55 769.61 1654.01"/><polygon class="cls-7" points="883.63 1614.87 482.41 1749.29 314.75 1643.84 257.24 1607.67 664.24 1518.21 883.63 1614.87"/><polygon class="cls-15" points="883.63 1614.87 883.63 1667 482.41 1801.43 257.24 1659.8 257.24 1607.67 314.75 1643.84 482.41 1749.29 883.63 1614.87"/><polygon class="cls-2" points="482.41 1749.29 482.41 1801.43 883.63 1667 883.63 1614.87 482.41 1749.29"/><polygon class="cls-6" points="679.79 1663.53 487.36 1723.59 300.96 1608.79 492.25 1566.22 679.79 1663.53"/><polygon class="cls-11" points="659.39 1661.52 487.68 1715.12 321.36 1612.68 492.04 1574.69 659.39 1661.52"/><polygon class="cls-13" points="682.39 1538.09 528.26 1573.8 507.03 1562.93 661.3 1528.6 682.39 1538.09"/><polygon class="cls-9" points="587.14 1589.51 568.17 1594.25 544.99 1582.38 563.97 1577.84 587.14 1589.51"/><polygon class="cls-13" points="623.13 1580.53 604.99 1585.06 581.84 1573.57 600 1569.22 623.13 1580.53"/><polygon class="cls-13" points="657.59 1571.93 640.22 1576.27 617.11 1565.13 634.51 1560.97 657.59 1571.93"/><polygon class="cls-1" points="690.6 1563.69 673.96 1567.85 650.91 1557.05 667.59 1553.07 690.6 1563.69"/><polygon class="cls-1" points="722.26 1555.79 706.29 1559.78 683.32 1549.3 699.32 1545.48 722.26 1555.79"/><polygon class="cls-13" points="627.35 1609.78 608.42 1614.87 584.16 1602.44 603.11 1597.57 627.35 1609.78"/><polygon class="cls-13" points="663.26 1600.14 645.17 1605 620.96 1592.98 639.08 1588.33 663.26 1600.14"/><polygon class="cls-13" points="697.59 1590.93 680.29 1595.57 656.15 1583.94 673.49 1579.48 697.59 1590.93"/><polygon class="cls-13" points="730.46 1582.11 713.89 1586.55 689.84 1575.29 706.45 1571.02 730.46 1582.11"/><polygon class="cls-13" points="761.95 1573.65 746.07 1577.92 722.11 1566.99 738.04 1562.9 761.95 1573.65"/><polygon class="cls-13" points="669.46 1631.01 650.58 1636.47 625.16 1623.45 644.08 1618.21 669.46 1631.01"/><polygon class="cls-13" points="705.23 1620.66 687.21 1625.87 661.87 1613.29 679.94 1608.3 705.23 1620.66"/><polygon class="cls-13" points="739.4 1610.78 722.18 1615.76 696.94 1603.59 714.21 1598.82 739.4 1610.78"/><polygon class="cls-13" points="772.07 1601.33 755.61 1606.09 730.47 1594.32 747 1589.75 772.07 1601.33"/><polygon class="cls-13" points="803.35 1592.28 787.58 1596.84 762.58 1585.44 778.41 1581.06 803.35 1592.28"/><polygon class="cls-1" points="713.6 1653.26 694.81 1659.13 668.14 1645.46 686.99 1639.84 713.6 1653.26"/><polygon class="cls-13" points="749.18 1642.14 731.26 1647.74 704.71 1634.56 722.69 1629.19 749.18 1642.14"/><polygon class="cls-13" points="783.13 1631.54 766.03 1636.88 739.6 1624.15 756.78 1619.03 783.13 1631.54"/><polygon class="cls-13" points="815.56 1621.41 799.22 1626.52 772.94 1614.21 789.36 1609.31 815.56 1621.41"/><polygon class="cls-8" points="846.57 1611.73 830.94 1616.61 804.82 1604.7 820.53 1600.01 846.57 1611.73"/><polygon class="cls-10" points="5409.06 1638.49 5409.06 2236.33 5123.1 2237.75 5123.1 1694.55 5409.06 1638.49"/><polygon class="cls-15" points="4975.89 1654.01 4977 2154.58 5123.1 2237.75 5123.1 1694.55 4975.89 1654.01"/><polygon class="cls-7" points="4861.86 1614.87 5263.08 1749.29 5430.74 1643.84 5488.25 1607.67 5081.25 1518.21 4861.86 1614.87"/><polygon class="cls-15" points="4861.86 1614.87 4861.86 1667 5263.08 1801.43 5488.25 1659.8 5488.25 1607.67 5430.74 1643.84 5263.08 1749.29 4861.86 1614.87"/><polygon class="cls-2" points="5263.08 1749.29 5263.08 1801.43 4861.86 1667 4861.86 1614.87 5263.08 1749.29"/><polygon class="cls-6" points="5049.94 1661.76 4898.94 1612.61 5080.34 1529.03 5238.21 1564.34 5049.94 1661.76"/><polygon class="cls-11" points="5049.69 1653.38 4913.39 1610.57 5077.08 1535.3 5215.2 1567.64 5049.69 1653.38"/><polygon class="cls-13" points="5433.93 1626.36 5231.97 1579.08 5253.56 1567.78 5455.72 1613 5433.93 1626.36"/><polygon class="cls-13" points="5211.92 1605.45 5191.52 1600.26 5214.98 1587.97 5235.45 1592.94 5211.92 1605.45"/><polygon class="cls-13" points="5253.6 1616.05 5232.08 1610.58 5255.67 1597.84 5277.24 1603.07 5253.6 1616.05"/><polygon class="cls-13" points="5297.62 1627.25 5274.89 1621.46 5298.58 1608.24 5321.35 1613.76 5297.62 1627.25"/><polygon class="cls-8" points="5344.17 1639.09 5320.12 1632.97 5343.88 1619.23 5367.95 1625.07 5344.17 1639.09"/><polygon class="cls-13" points="5393.47 1651.63 5367.99 1645.15 5391.8 1630.85 5417.29 1637.03 5393.47 1651.63"/><polygon class="cls-13" points="5171.19 1627.1 5150.92 1621.51 5175.36 1608.71 5195.71 1614.06 5171.19 1627.1"/><polygon class="cls-13" points="5212.64 1638.53 5191.24 1632.63 5215.84 1619.35 5237.31 1624.99 5212.64 1638.53"/><polygon class="cls-13" points="5256.47 1650.62 5233.83 1644.38 5258.56 1630.57 5281.26 1636.54 5256.47 1650.62"/><polygon class="cls-13" points="5302.87 1663.42 5278.89 1656.81 5303.73 1642.44 5327.76 1648.76 5302.87 1663.42"/><polygon class="cls-13" points="5352.09 1677 5326.65 1669.98 5351.57 1655.01 5377.04 1661.71 5352.09 1677"/><polygon class="cls-13" points="5128.71 1649.69 5108.59 1643.66 5134.08 1630.32 5154.29 1636.08 5128.71 1649.69"/><polygon class="cls-13" points="5169.87 1662.01 5148.61 1655.65 5174.29 1641.78 5195.64 1647.87 5169.87 1662.01"/><polygon class="cls-13" points="5213.45 1675.07 5190.93 1668.32 5216.78 1653.9 5239.37 1660.34 5213.45 1675.07"/><polygon class="cls-13" points="5259.64 1688.9 5235.76 1681.75 5261.76 1666.72 5285.7 1673.54 5259.64 1688.9"/><polygon class="cls-13" points="5308.71 1703.6 5283.34 1696 5309.45 1680.31 5334.87 1687.56 5308.71 1703.6"/><polygon class="cls-13" points="5084.36 1673.26 5064.44 1666.78 5091.03 1652.85 5111.07 1659.06 5084.36 1673.26"/><polygon class="cls-13" points="5125.17 1686.56 5104.08 1679.69 5130.91 1665.2 5152.1 1671.77 5125.17 1686.56"/><polygon class="cls-13" points="5168.42 1700.65 5146.06 1693.36 5173.1 1678.27 5195.56 1685.23 5168.42 1700.65"/><polygon class="cls-13" points="5214.34 1715.6 5190.59 1707.87 5217.82 1692.12 5241.65 1699.51 5214.34 1715.6"/><polygon class="cls-13" points="5263.18 1731.51 5237.91 1723.28 5265.3 1706.83 5290.64 1714.68 5263.18 1731.51"/><rect class="cls-12" x="534.6" y="1029.54" width="1174.48" height="8.22" transform="translate(-232.63 1735.34) rotate(-70.04)"/><rect class="cls-12" x="4623.16" y="446.41" width="8.22" height="1174.48" transform="translate(-74.93 1641.44) rotate(-19.96)"/><polygon class="cls-3" points="1510.64 585.91 1236.57 1477.78 1738.25 1417.4 1510.64 585.91"/><polygon class="cls-3" points="4139.8 641.65 3809.99 1366.3 4427.8 1463.85 4139.8 641.65"/></g></g></svg>